{"glyphs":{":":{"x_min":0,"x_max":174,"ha":174,"o":"m 96 -10 q 87 -10 80 -6 q 73 -3 68 3 q 64 9 61 16 q 59 24 59 32 q 59 43 62 52 q 66 60 72 66 q 78 72 85 74 q 93 77 100 77 q 108 77 115 74 q 122 71 127 66 q 132 61 135 53 q 137 46 137 38 q 137 29 134 21 q 131 12 126 5 q 120 -1 113 -6 q 105 -10 96 -10 z m 108 254 q 99 254 92 257 q 85 261 80 267 q 76 272 73 280 q 71 288 71 295 q 71 307 74 315 q 78 324 84 329 q 90 335 97 338 q 105 341 112 341 q 120 341 127 338 q 134 335 139 329 q 144 324 146 317 q 149 310 149 302 q 149 293 146 284 q 143 276 138 269 q 132 262 125 258 q 117 254 108 254 z"},"$":{"x_min":0,"x_max":379,"ha":379,"o":"m 193 -62 l 167 -64 l 162 -64 l 164 -6 l 159 -6 q 143 -6 126 -4 q 110 -2 94 3 q 78 7 65 14 q 51 21 41 31 q 30 41 24 53 q 18 66 18 82 q 18 94 23 103 q 27 112 34 119 q 41 126 50 130 q 59 133 69 133 q 76 133 83 131 l 85 129 q 83 120 81 112 q 80 104 80 97 q 80 82 86 69 q 91 57 102 47 q 113 38 129 32 q 145 27 165 26 l 173 235 q 156 242 140 250 q 124 258 110 267 q 95 276 82 287 q 70 298 60 311 q 51 323 46 339 q 41 355 41 374 q 41 403 52 427 q 64 451 83 470 q 103 489 129 501 q 155 513 184 518 l 186 572 q 186 577 191 579 q 196 582 202 582 q 206 582 210 581 q 214 580 217 578 l 215 521 l 219 521 q 253 521 276 513 q 300 506 315 495 q 330 484 337 470 q 344 456 344 443 q 344 434 340 426 q 337 418 332 412 q 326 406 317 403 q 309 399 298 399 q 291 399 283 401 l 281 403 q 282 409 283 414 q 284 419 284 425 q 284 443 278 455 q 271 467 262 474 q 252 481 239 484 q 227 488 214 488 l 206 293 l 213 290 q 239 278 264 266 q 288 254 308 238 q 328 222 340 201 q 352 180 352 152 q 352 118 339 91 q 326 63 305 44 q 283 24 255 12 q 226 0 195 -4 z m 298 119 q 298 139 290 154 q 283 170 270 182 q 257 195 240 205 q 223 215 204 224 l 197 27 q 217 30 236 37 q 254 45 268 57 q 282 68 290 84 q 298 100 298 119 z m 92 402 q 92 384 98 370 q 104 355 116 344 q 127 332 142 322 q 158 312 175 304 l 182 487 q 163 483 146 476 q 129 469 117 458 q 105 447 98 432 q 92 418 92 402 z"},"?":{"x_min":0,"x_max":356,"ha":356,"o":"m 193 132 q 156 138 137 151 q 118 163 118 185 q 118 195 121 203 q 125 212 132 222 q 139 232 149 244 q 160 256 175 273 q 189 288 204 306 q 219 325 232 347 q 244 369 252 395 q 260 421 260 450 q 260 471 253 488 q 246 504 233 515 q 221 526 204 531 q 187 537 168 537 q 152 537 138 533 q 124 530 114 522 q 103 514 97 502 q 91 490 91 474 q 91 457 98 441 q 105 424 120 411 l 119 406 q 104 398 87 398 q 76 398 67 402 q 57 405 50 412 q 43 419 38 429 q 34 439 34 452 q 34 470 42 487 q 50 503 62 517 q 75 530 93 541 q 110 552 129 559 q 148 566 168 570 q 188 574 206 574 q 231 574 253 567 q 274 560 291 547 q 307 533 316 514 q 326 494 326 468 q 326 438 316 411 q 307 385 292 361 q 276 338 258 318 q 239 297 220 278 q 210 268 200 257 q 190 246 182 235 q 175 225 170 213 q 165 202 165 190 q 165 182 167 176 q 169 170 174 165 q 178 160 185 156 q 191 153 199 149 z m 157 -10 q 148 -10 141 -6 q 134 -3 129 3 q 124 8 121 16 q 118 23 118 31 q 118 42 122 50 q 125 58 131 64 q 137 70 144 73 q 151 75 158 75 q 167 75 174 72 q 181 69 186 64 q 191 59 194 52 q 197 45 197 37 q 197 29 194 20 q 191 12 186 5 q 181 -2 173 -6 q 166 -10 157 -10 z"},"<":{"x_min":0,"x_max":385,"ha":385,"o":"m 30 192 q 55 202 82 214 q 110 225 138 238 q 166 250 194 263 q 222 275 248 288 q 274 301 297 313 q 320 325 338 336 q 347 331 351 325 q 355 318 355 312 q 355 308 354 304 q 353 300 349 296 q 345 292 337 286 q 329 281 315 274 q 301 267 280 258 q 260 249 230 236 q 201 224 163 209 q 124 193 74 174 q 123 154 160 139 q 197 124 225 111 q 253 99 273 90 q 293 81 306 74 q 320 67 328 61 q 335 56 339 52 q 344 47 345 44 q 346 40 346 36 q 346 30 341 23 q 337 17 329 12 q 311 23 289 35 q 266 47 241 60 q 216 72 188 85 q 161 98 133 110 q 106 122 79 134 q 52 145 29 156 z"},"'":{"x_min":0,"x_max":149,"ha":149,"o":"m 62 367 l 61 571 q 61 575 64 578 q 66 581 70 582 q 74 584 79 585 q 84 586 89 586 q 96 586 104 585 q 112 583 120 580 q 109 527 100 475 q 92 423 87 368 l 66 366 z"},"=":{"x_min":0,"x_max":385,"ha":385,"o":""},"a":{"x_min":0,"x_max":358,"ha":358,"o":"m 234 251 q 234 270 228 284 q 221 299 211 308 q 201 317 188 321 q 175 325 162 325 q 145 325 133 322 q 121 318 113 312 q 106 305 103 297 q 99 288 99 278 q 99 266 104 255 q 108 243 116 231 l 115 229 q 101 222 87 222 q 79 222 72 224 q 64 227 59 232 q 54 237 51 244 q 48 251 48 260 q 48 274 55 287 q 62 300 73 310 q 85 321 100 329 q 115 337 131 343 q 147 349 163 352 q 180 355 194 355 q 219 355 237 348 q 256 341 267 328 q 278 315 284 296 q 289 278 289 254 q 289 238 287 219 q 286 200 284 179 q 283 157 281 135 q 280 113 280 90 q 280 55 293 37 q 306 20 327 20 q 346 20 369 34 l 376 23 q 360 7 341 -2 q 322 -10 300 -10 q 284 -10 271 -5 q 258 0 248 11 q 238 22 233 38 q 227 54 227 75 q 227 82 228 88 q 228 94 229 101 l 228 101 q 217 80 203 60 q 190 40 173 24 q 157 8 138 -2 q 119 -12 99 -12 q 82 -12 68 -6 q 54 0 44 10 q 34 20 29 34 q 23 48 23 65 q 23 86 31 104 q 39 121 53 135 q 67 149 87 159 q 106 169 129 176 q 152 183 178 186 q 204 189 230 189 q 232 205 233 219 q 234 234 234 251 z m 84 83 q 84 74 86 65 q 88 56 93 50 q 97 43 104 39 q 111 36 121 36 q 132 36 144 41 q 156 46 167 55 q 178 64 189 77 q 199 89 207 104 q 216 119 221 135 q 227 152 228 169 q 210 169 192 167 q 175 165 159 161 q 143 157 129 151 q 115 145 105 135 q 95 126 90 113 q 84 100 84 83 z"},"L":{"x_min":0,"x_max":404,"ha":404,"o":"m 91 484 q 91 495 90 504 q 89 512 85 517 q 81 522 74 524 q 66 527 54 527 q 46 527 35 526 q 23 525 10 523 l 8 543 q 44 552 69 557 q 95 561 112 561 q 128 561 137 557 q 146 553 150 544 q 154 536 154 524 q 155 511 155 496 q 155 495 155 480 q 155 465 154 440 q 153 415 152 381 q 152 348 151 311 q 149 274 148 235 q 146 196 145 159 q 143 123 141 90 q 139 57 136 32 q 160 35 180 37 q 201 39 219 39 q 244 39 266 37 q 288 36 309 36 q 324 36 336 40 q 347 45 355 56 q 364 67 369 85 q 375 104 378 133 l 399 132 q 399 89 394 61 q 389 33 379 17 q 370 1 357 -5 q 344 -11 326 -11 q 313 -11 298 -9 q 282 -6 264 -3 q 245 0 224 2 q 202 5 177 5 q 155 5 129 2 q 103 -1 76 -8 l 72 -7 q 76 26 79 65 q 82 103 84 145 q 86 186 87 230 q 89 273 90 317 q 90 360 91 402 q 91 445 91 484 z"},"3":{"x_min":0,"x_max":330,"ha":330,"o":"m 91 109 q 117 118 141 131 q 166 144 185 162 q 204 179 215 202 q 227 224 227 252 q 227 271 220 285 q 213 300 202 310 q 190 320 175 326 q 160 331 142 331 q 124 331 111 327 q 99 323 91 316 q 83 310 80 301 q 76 292 76 282 q 76 268 82 255 q 87 241 99 232 l 98 229 q 83 222 69 222 q 60 222 52 224 q 44 227 38 232 q 32 238 29 246 q 26 254 26 264 q 26 279 33 292 q 40 304 52 315 q 63 326 79 334 q 95 343 112 349 q 129 354 146 358 q 164 361 179 361 q 201 361 220 355 q 240 349 255 338 q 271 326 279 310 q 288 293 288 271 q 288 252 283 234 q 277 217 267 202 q 257 187 244 174 q 231 161 216 151 q 201 140 185 131 q 169 122 154 115 l 155 114 q 156 114 157 114 q 158 114 160 114 l 165 114 q 193 114 219 106 q 244 97 264 82 q 283 67 295 44 q 307 22 307 -6 q 307 -32 299 -55 q 291 -78 276 -97 q 262 -116 242 -131 q 223 -146 200 -157 q 177 -167 153 -172 q 128 -178 103 -178 q 93 -178 80 -177 q 67 -175 55 -172 q 42 -169 30 -164 q 18 -159 9 -151 q 0 -144 -5 -134 q -11 -124 -11 -111 q -11 -104 -8 -98 q -5 -91 0 -86 q 5 -80 12 -77 q 19 -74 28 -74 q 36 -92 47 -106 q 58 -119 72 -128 q 85 -136 100 -140 q 115 -145 130 -145 q 151 -145 172 -136 q 192 -128 208 -113 q 224 -98 234 -76 q 243 -55 243 -27 q 243 1 233 24 q 223 46 205 61 q 188 77 165 85 q 143 93 117 93 l 110 93 q 105 93 102 92 q 98 92 93 92 z"},";":{"x_min":0,"x_max":174,"ha":174,"o":"m 29 -114 q 43 -106 56 -94 q 69 -83 78 -70 q 87 -56 92 -42 q 97 -28 97 -15 q 97 -4 94 2 q 92 9 87 14 q 83 18 78 22 q 73 25 68 29 q 64 33 61 39 q 58 44 58 53 q 58 61 61 68 q 64 75 69 80 q 74 86 81 89 q 88 92 96 92 q 109 92 118 86 q 127 81 133 72 q 139 64 142 53 q 145 42 145 30 q 145 11 138 -12 q 132 -34 118 -55 q 105 -77 85 -96 q 66 -115 40 -127 z m 108 254 q 99 254 92 257 q 85 261 80 267 q 76 272 73 280 q 71 288 71 295 q 71 307 74 315 q 78 324 84 329 q 90 335 97 338 q 105 341 112 341 q 120 341 127 338 q 134 335 139 329 q 144 324 146 317 q 149 310 149 302 q 149 293 146 284 q 143 276 138 269 q 132 262 125 258 q 117 254 108 254 z"},"J":{"x_min":0,"x_max":219,"ha":219,"o":"m 155 496 q 155 489 155 475 q 154 462 154 443 q 153 425 152 404 q 152 383 151 362 q 150 306 148 247 q 146 189 142 132 q 137 76 130 23 q 122 -30 109 -75 q 101 -105 90 -127 q 78 -150 65 -167 q 52 -183 37 -194 q 22 -206 7 -212 q -9 -219 -24 -222 q -39 -225 -54 -225 q -73 -225 -90 -221 q -106 -216 -118 -208 q -130 -201 -137 -191 q -144 -181 -144 -170 q -144 -164 -141 -157 q -138 -151 -132 -145 q -127 -140 -120 -137 q -113 -134 -105 -134 q -90 -160 -70 -172 q -50 -183 -27 -183 q -3 -183 14 -171 q 31 -159 43 -137 q 55 -115 62 -84 q 70 -53 74 -14 q 79 25 81 70 q 83 115 85 165 q 87 206 88 246 q 89 286 89 325 q 90 364 90 403 q 91 443 91 484 q 91 495 90 504 q 89 512 85 517 q 81 522 74 524 q 66 527 54 527 q 50 527 45 526 q 39 526 33 526 q 27 525 20 524 q 13 523 7 522 l 4 543 q 40 552 68 557 q 95 561 112 561 q 128 561 137 557 q 146 553 150 544 q 154 536 154 524 q 155 511 155 496 z"},"V":{"x_min":0,"x_max":457,"ha":457,"o":"m 130 502 q 139 473 149 433 q 160 393 172 338 q 185 284 199 213 q 212 143 228 54 l 229 54 q 252 98 273 142 q 295 185 314 226 q 333 267 349 305 q 365 343 376 376 q 388 410 394 437 q 400 465 400 485 q 400 536 366 566 l 368 570 q 373 571 378 571 q 383 572 388 572 q 400 572 412 569 q 425 566 434 559 q 444 552 450 540 q 456 528 456 510 q 456 494 448 466 q 440 438 426 401 q 412 364 392 318 q 371 272 346 220 q 321 167 290 110 q 260 53 227 -7 l 187 -10 l 181 -10 q 144 184 117 305 q 90 427 71 477 q 66 490 61 499 q 56 509 49 514 q 43 520 34 523 q 25 526 12 526 q 4 526 -6 525 q -15 523 -28 521 l -31 543 q 7 553 33 558 q 58 563 75 563 q 88 563 96 559 q 104 556 110 548 q 115 541 120 529 q 125 518 130 502 z"},"\"":{"x_min":0,"x_max":261,"ha":261,"o":""},"7":{"x_min":0,"x_max":381,"ha":381,"o":"m 369 340 q 309 231 251 102 q 192 -26 136 -174 l 83 -178 l 78 -176 q 134 -58 191 58 q 248 175 308 291 q 288 292 270 292 q 253 292 238 292 q 222 292 208 292 q 194 292 181 292 l 146 292 q 127 292 113 291 q 98 290 88 287 q 78 284 71 278 q 64 272 60 262 q 55 252 53 237 q 50 222 48 201 l 23 202 l 25 229 q 26 254 27 272 q 28 291 30 304 q 32 317 36 326 q 39 335 45 340 q 50 345 59 348 q 67 350 79 350 q 85 350 97 349 q 109 348 125 347 q 141 346 160 346 q 179 345 200 345 q 221 345 241 345 q 260 345 280 345 q 299 346 319 347 q 340 348 363 350 z"},"S":{"x_min":0,"x_max":352,"ha":352,"o":"m 50 144 q 49 138 49 132 q 49 127 49 122 q 49 94 56 74 q 64 55 78 43 q 91 31 111 25 q 130 20 154 20 q 178 20 200 26 q 222 33 238 46 q 255 60 265 80 q 274 100 274 126 q 274 142 270 156 q 265 170 257 182 q 250 193 239 203 q 228 213 215 221 q 202 230 188 238 q 174 246 159 254 q 144 262 129 271 q 113 280 99 290 q 85 300 73 311 q 62 323 53 337 q 44 351 39 368 q 34 385 34 406 q 34 432 41 454 q 47 477 59 495 q 71 514 88 529 q 104 543 124 554 q 143 564 166 569 q 188 574 211 574 q 222 574 234 573 q 247 572 259 569 q 271 566 282 562 q 293 559 302 554 q 310 549 315 543 q 321 537 321 531 q 321 523 320 513 q 320 502 320 489 q 319 475 319 459 q 318 443 317 425 l 292 427 q 293 435 293 443 q 293 468 286 486 q 279 504 266 517 q 252 529 234 535 q 216 542 193 542 q 171 542 151 534 q 132 527 118 513 q 104 500 95 482 q 87 463 87 441 q 87 424 92 409 q 97 395 105 382 q 113 370 124 360 q 135 350 149 341 q 162 332 177 324 q 191 316 206 308 q 221 300 237 292 q 252 283 266 273 q 280 264 292 252 q 303 241 312 227 q 321 213 326 197 q 331 180 331 160 q 331 126 322 101 q 312 75 297 56 q 282 36 262 23 q 242 10 220 2 q 199 -6 177 -10 q 156 -13 138 -13 q 114 -13 92 -10 q 71 -7 55 -1 q 39 4 30 11 q 21 18 21 25 q 21 42 22 72 q 23 103 25 145 z"},"}":{"x_min":0,"x_max":271,"ha":271,"o":"m 240 240 q 219 238 204 233 q 188 228 179 219 q 169 209 164 196 q 159 182 159 163 q 159 148 161 129 q 162 109 164 87 q 166 65 168 43 q 169 21 169 1 q 169 -21 166 -41 q 163 -61 156 -79 q 150 -98 139 -113 q 129 -128 114 -140 q 100 -151 81 -157 q 62 -163 39 -163 l 31 -163 q 30 -163 28 -163 q 26 -163 24 -163 l 26 -137 q 28 -137 29 -137 q 30 -137 31 -137 l 37 -137 q 77 -137 97 -113 q 117 -88 117 -35 q 117 -19 115 -1 q 114 16 112 34 q 111 52 109 70 q 108 88 108 105 q 108 130 112 153 q 115 176 124 195 q 133 214 149 229 q 164 243 189 251 l 189 253 q 166 260 151 273 q 136 285 127 302 q 119 319 116 339 q 113 359 113 382 q 113 401 115 421 q 117 441 120 461 q 122 481 125 500 q 127 520 127 538 q 127 585 107 607 q 88 628 50 628 l 45 628 q 43 628 42 628 q 41 628 40 628 l 39 654 q 41 654 42 654 q 44 654 46 654 l 53 654 q 75 654 93 649 q 111 643 125 633 q 139 623 149 609 q 159 596 165 579 q 172 563 175 544 q 178 526 178 506 q 178 492 177 477 q 176 461 174 446 q 172 430 170 414 q 168 398 166 384 q 164 369 163 357 q 162 344 162 334 q 162 316 167 303 q 171 291 181 283 q 191 275 205 270 q 220 266 240 263 z"},"Z":{"x_min":0,"x_max":441,"ha":441,"o":"m 49 430 q 50 457 51 477 q 52 497 54 512 q 56 527 59 537 q 62 547 67 552 q 73 558 82 561 q 90 563 103 563 q 110 563 123 562 q 137 562 157 561 q 177 560 204 559 q 231 558 265 558 q 284 558 301 558 q 318 558 336 559 q 354 559 374 560 q 394 562 419 563 l 426 553 q 410 530 391 501 q 372 472 351 439 q 331 406 308 371 q 286 336 264 299 q 242 263 220 226 q 198 190 177 155 q 156 121 137 89 q 118 57 103 30 q 152 36 188 37 q 224 39 250 39 q 265 39 277 38 q 290 38 300 37 q 310 37 319 36 q 328 36 337 36 q 352 36 363 40 q 375 45 383 56 q 391 67 397 85 q 402 104 405 133 l 427 132 q 426 89 421 61 q 416 33 407 17 q 398 1 384 -5 q 371 -11 354 -11 q 344 -11 334 -10 q 324 -9 313 -7 q 302 -5 290 -3 q 277 -1 261 1 q 246 2 226 4 q 207 5 182 5 q 166 5 148 4 q 131 4 110 2 q 90 1 66 -2 q 43 -4 15 -7 l 9 2 q 25 27 45 57 q 64 87 86 120 q 107 154 129 190 q 151 225 174 262 q 196 298 218 334 q 240 370 260 404 q 280 437 298 468 q 316 498 331 524 q 311 524 294 525 q 276 525 261 525 q 245 525 231 525 q 217 525 204 525 l 169 525 q 150 525 136 524 q 122 523 112 520 q 102 517 95 510 q 89 504 84 493 q 80 482 77 467 q 75 451 73 429 z"},"x":{"x_min":0,"x_max":386,"ha":386,"o":"m 28 327 q 45 333 60 338 q 75 342 87 346 q 100 349 109 351 q 118 352 123 352 q 131 352 138 350 q 144 348 151 342 q 157 335 163 324 q 169 313 175 295 q 182 273 189 254 q 197 235 204 216 q 219 247 235 273 q 250 298 266 316 q 282 334 298 344 q 314 354 331 354 q 342 354 351 350 q 359 347 365 342 q 370 336 373 329 q 376 322 376 314 q 376 304 371 294 q 366 284 355 277 l 353 277 q 349 282 344 286 q 339 289 334 291 q 330 292 325 293 q 320 294 316 294 q 301 294 288 286 q 275 277 262 263 q 250 248 238 229 q 226 209 214 185 q 226 154 235 130 q 245 106 254 89 q 262 71 270 59 q 278 48 287 41 q 295 33 304 31 q 313 28 324 28 q 331 28 337 28 q 344 29 349 30 q 355 31 362 33 q 369 35 377 38 l 382 24 q 370 16 356 9 q 343 2 329 -3 q 316 -7 303 -10 q 290 -12 278 -12 q 262 -12 250 -5 q 237 3 226 20 q 215 36 203 62 q 192 88 178 125 q 160 94 143 69 q 126 43 109 25 q 92 6 75 -4 q 58 -14 40 -14 q 30 -14 21 -11 q 13 -9 8 -4 q 3 1 0 8 q -3 14 -3 21 q -3 30 1 38 q 4 47 12 54 q 25 50 35 48 q 46 46 54 46 q 70 46 84 53 q 99 61 112 76 q 126 90 139 110 q 153 130 167 155 q 162 167 158 179 q 153 192 148 206 q 143 219 137 235 q 132 250 125 268 q 120 283 114 292 q 109 302 102 307 q 96 312 89 314 q 82 316 73 316 q 65 316 55 315 q 44 313 31 310 z"},")":{"x_min":0,"x_max":248,"ha":248,"o":"m 0 646 q 7 655 14 658 q 21 662 30 662 q 42 662 53 656 q 65 650 78 637 q 97 619 113 595 q 129 570 143 542 q 156 513 167 482 q 177 450 184 417 q 191 384 195 350 q 199 316 199 283 q 199 221 188 160 q 177 98 155 40 q 134 -18 102 -71 q 70 -125 27 -172 l 10 -159 q 45 -115 71 -66 q 98 -17 116 37 q 134 90 143 147 q 153 203 153 260 q 153 294 149 330 q 146 365 138 400 q 130 435 118 469 q 106 502 89 534 q 73 565 50 592 q 28 620 0 642 z"},"&":{"x_min":0,"x_max":534,"ha":534,"o":"m 365 121 q 375 141 380 163 q 385 185 385 207 q 385 233 377 257 q 369 281 352 302 q 336 303 325 305 q 314 307 311 308 q 305 310 303 312 q 301 314 301 318 q 301 321 304 324 q 308 328 312 331 q 317 334 323 337 q 328 340 333 342 q 357 335 375 325 q 396 325 415 325 q 434 326 451 327 q 469 329 486 331 q 504 333 522 335 q 527 325 527 319 q 527 311 522 306 q 517 302 508 299 q 498 297 485 296 q 472 295 456 295 q 444 295 430 295 q 417 296 403 297 q 410 287 414 277 q 418 268 421 258 q 423 249 424 241 q 425 233 425 228 q 425 196 414 165 q 403 135 384 104 q 404 87 423 73 q 442 60 460 50 q 478 40 493 35 q 508 29 520 29 q 534 29 544 31 q 554 33 564 37 l 571 18 q 563 14 552 9 q 541 5 529 0 q 516 -4 503 -7 q 489 -10 476 -10 q 464 -10 449 -5 q 435 0 418 8 q 402 17 384 30 q 366 42 347 57 q 332 42 314 29 q 296 16 277 6 q 257 -3 236 -8 q 215 -13 194 -13 q 162 -13 133 -2 q 104 8 83 28 q 62 49 49 77 q 36 106 36 142 q 36 174 45 201 q 54 227 69 248 q 84 269 104 286 q 123 302 144 316 q 130 347 122 377 q 114 406 114 433 q 114 461 124 486 q 135 510 153 529 q 171 547 194 558 q 218 568 243 568 q 263 568 280 562 q 296 556 307 546 q 319 535 325 520 q 331 504 331 486 q 331 469 324 448 q 318 428 303 406 q 288 385 264 362 q 240 340 206 319 q 220 293 238 266 q 256 240 277 214 q 297 189 320 165 q 342 142 365 121 z m 156 292 q 143 281 132 269 q 121 256 114 241 q 106 227 102 209 q 97 192 97 173 q 97 136 109 110 q 120 83 138 66 q 156 49 179 41 q 202 33 225 33 q 240 33 254 36 q 268 39 281 44 q 294 49 306 57 q 318 64 328 74 q 304 96 280 121 q 256 147 233 175 q 210 203 191 233 q 171 262 156 292 z m 194 342 q 217 355 233 372 q 248 388 258 406 q 268 423 272 440 q 277 458 277 472 q 277 485 273 497 q 269 509 262 517 q 255 526 245 531 q 236 536 224 536 q 207 536 195 529 q 184 522 177 510 q 170 499 167 484 q 163 469 163 453 q 163 428 172 400 q 180 372 194 342 z"},"_":{"x_min":0,"x_max":159,"ha":159,"o":"m 105 -103 q 66 -103 31 -105 q -3 -108 -32 -115 q -32 -106 -29 -99 q -26 -92 -19 -86 q -12 -81 0 -78 q 11 -74 29 -72 q 46 -70 71 -69 q 95 -68 127 -68 q 139 -68 150 -68 q 161 -68 171 -68 q 181 -67 192 -67 q 202 -66 212 -64 q 214 -69 215 -74 q 216 -79 216 -82 q 216 -94 201 -98 q 186 -103 154 -103 z"},"v":{"x_min":0,"x_max":324,"ha":324,"o":"m 116 -9 q 113 15 108 41 q 104 66 99 93 q 94 119 89 145 q 83 170 78 193 q 72 217 67 236 q 62 256 57 270 q 53 284 49 293 q 44 302 40 308 q 35 313 30 315 q 25 317 18 317 q 10 317 1 315 q -8 313 -20 311 l -24 328 q -9 333 5 338 q 19 343 31 346 q 43 349 52 351 q 61 352 67 352 q 73 352 79 350 q 84 348 89 342 q 94 336 99 327 q 104 317 108 302 q 112 293 116 277 q 120 262 125 242 q 129 222 134 199 q 139 176 144 151 q 149 127 153 101 q 157 76 160 51 q 172 69 184 88 q 197 107 208 126 q 219 146 229 166 q 239 186 246 205 q 253 225 258 244 q 262 262 262 280 q 262 302 254 321 q 246 341 228 355 l 230 361 q 235 362 239 362 q 243 362 247 362 q 280 362 296 347 q 313 331 313 304 q 313 283 304 257 q 295 230 281 201 q 267 172 248 142 q 230 112 211 84 q 192 56 174 31 q 156 7 142 -11 z"},"O":{"x_min":0,"x_max":530,"ha":530,"o":"m 255 -13 q 206 -13 165 4 q 124 21 94 54 q 65 88 48 138 q 32 188 32 255 q 32 297 39 337 q 45 377 59 412 q 73 448 93 478 q 113 507 140 529 q 167 550 201 562 q 235 574 275 574 q 324 574 365 557 q 406 540 436 506 q 466 473 482 422 q 499 372 499 306 q 499 264 492 224 q 485 184 471 148 q 458 113 437 83 q 417 53 390 32 q 363 10 329 -1 q 295 -13 255 -13 z m 266 18 q 294 18 318 28 q 341 37 359 54 q 377 71 391 94 q 404 118 413 148 q 421 177 426 211 q 430 245 430 282 q 430 349 417 398 q 404 447 381 479 q 359 511 329 527 q 299 542 265 542 q 237 542 214 533 q 191 524 172 507 q 154 490 141 466 q 127 442 119 413 q 110 384 106 349 q 102 315 102 278 q 102 212 115 163 q 128 114 150 82 q 173 50 203 34 q 232 18 266 18 z"},"(":{"x_min":0,"x_max":248,"ha":248,"o":"m 248 -156 q 241 -165 233 -168 q 226 -172 218 -172 q 206 -172 194 -166 q 183 -160 169 -148 q 151 -129 134 -105 q 118 -81 105 -52 q 91 -24 81 8 q 71 40 63 73 q 56 106 52 140 q 49 174 49 206 q 49 269 60 330 q 71 391 92 449 q 114 507 146 561 q 178 615 221 662 l 238 648 q 203 605 176 556 q 149 507 131 453 q 113 400 104 343 q 95 287 95 229 q 95 195 99 160 q 102 125 110 90 q 117 55 129 21 q 141 -13 158 -44 q 175 -75 197 -103 q 219 -130 247 -153 z"},"C":{"x_min":0,"x_max":484,"ha":484,"o":"m 309 574 q 341 574 368 568 q 395 562 415 554 q 435 545 446 536 q 457 526 457 518 q 457 501 456 474 q 455 447 453 409 l 432 410 q 432 413 432 416 q 432 419 432 423 q 432 440 428 455 q 425 470 416 484 q 406 498 392 509 q 379 520 363 527 q 346 534 328 538 q 310 542 291 542 q 258 542 231 532 q 205 521 184 504 q 163 486 147 461 q 132 437 121 408 q 111 379 106 347 q 101 315 101 283 q 101 245 108 211 q 114 177 126 148 q 137 120 154 97 q 171 74 191 58 q 212 43 236 34 q 260 26 287 26 q 305 26 325 30 q 344 34 365 43 q 385 52 406 65 q 426 78 447 97 q 449 96 451 94 q 454 93 456 91 q 458 89 460 87 q 461 85 461 83 q 461 81 459 78 q 436 52 411 34 q 387 16 362 5 q 337 -6 312 -10 q 287 -15 262 -15 q 229 -15 200 -6 q 170 3 144 20 q 118 37 98 62 q 77 86 62 116 q 48 146 40 182 q 32 218 32 257 q 32 295 39 334 q 47 372 62 407 q 78 442 101 473 q 124 503 155 526 q 185 549 224 561 q 262 574 309 574 z"},"W":{"x_min":0,"x_max":711,"ha":711,"o":"m 464 -9 l 459 -9 q 452 36 445 75 q 438 114 431 148 q 424 183 417 214 q 410 245 404 274 q 395 314 388 349 q 381 383 373 415 l 371 415 q 362 379 352 346 q 342 313 331 281 q 321 249 309 217 q 298 184 285 149 q 272 114 258 76 q 244 38 228 -6 l 186 -9 l 180 -9 q 142 187 114 308 q 86 429 70 478 q 66 491 61 500 q 56 509 49 515 q 43 521 34 524 q 25 526 12 526 q 4 526 -5 525 q -15 524 -27 522 l -29 544 q 9 553 34 558 q 59 563 75 563 q 88 563 96 560 q 105 556 111 548 q 116 541 121 528 q 125 516 130 498 q 137 472 147 433 q 157 395 169 342 q 181 289 195 221 q 209 154 224 72 l 226 72 q 238 105 251 143 q 264 180 277 219 q 291 258 304 299 q 318 340 331 380 q 344 421 356 461 q 368 501 378 538 q 380 542 384 544 q 389 546 394 546 q 400 546 404 545 q 410 521 418 487 q 427 453 435 414 q 444 375 453 332 q 463 288 472 244 q 481 199 490 156 q 498 112 506 72 l 507 72 q 524 108 542 148 q 559 187 575 226 q 591 266 605 304 q 619 342 629 376 q 639 410 645 438 q 651 467 651 487 q 651 499 649 511 q 646 524 642 534 q 638 545 632 554 q 625 563 616 568 l 617 573 q 622 573 627 574 q 632 574 637 574 q 651 574 663 571 q 676 567 685 560 q 695 553 700 541 q 706 529 706 513 q 706 500 701 480 q 697 460 689 433 q 681 406 669 375 q 658 343 644 307 q 630 271 613 233 q 597 194 579 154 q 562 114 543 74 q 524 33 505 -6 z"},"A":{"x_min":0,"x_max":495,"ha":495,"o":"m 97 133 q 88 108 82 89 q 75 71 70 57 q 65 44 62 34 q 58 24 55 16 q 51 7 46 1 q 41 -4 36 -6 q 30 -8 23 -9 q 17 -9 10 -9 q 5 -9 -1 -9 q -7 -9 -12 -9 l -16 -6 q 14 57 40 115 q 66 173 91 226 q 85 234 85 240 q 85 249 101 250 q 146 348 181 422 q 216 497 242 548 q 245 552 249 555 q 252 558 257 560 q 262 562 267 562 q 272 563 277 563 q 284 563 291 562 q 298 561 305 557 q 321 473 334 405 q 346 337 357 284 q 368 231 378 192 q 388 152 397 124 q 406 96 415 78 q 424 59 434 49 q 443 38 454 34 q 465 30 478 30 q 486 30 494 32 q 503 34 513 38 l 520 18 q 492 4 466 -4 q 441 -11 421 -11 q 410 -11 400 -7 q 390 -3 381 7 q 372 18 363 35 q 354 52 345 78 q 337 104 327 139 q 318 175 308 222 q 263 222 219 220 q 175 219 127 216 q 118 191 110 170 q 103 149 97 133 z m 302 252 q 296 277 291 306 q 285 335 279 368 q 272 401 266 437 q 260 472 254 509 l 252 509 q 217 436 189 371 q 162 305 140 250 q 182 251 222 251 q 261 252 302 252 z"},"f":{"x_min":0,"x_max":231,"ha":231,"o":"m 137 335 q 149 334 160 334 q 172 334 182 334 q 191 334 199 334 q 207 333 213 333 q 224 333 234 334 q 244 335 251 336 q 254 326 254 321 q 254 310 245 307 q 236 303 219 303 q 202 303 182 305 q 161 307 136 309 q 135 280 134 246 q 132 211 130 175 q 127 138 124 100 q 121 63 116 27 q 111 -9 104 -42 q 97 -74 88 -101 q 73 -143 55 -171 q 37 -198 17 -215 q -3 -232 -25 -240 q -47 -247 -69 -247 q -88 -247 -104 -243 q -120 -239 -131 -231 q -143 -224 -150 -215 q -156 -206 -156 -195 q -156 -189 -154 -183 q -151 -178 -146 -173 q -142 -169 -135 -166 q -129 -163 -121 -163 q -114 -176 -105 -185 q -97 -194 -87 -200 q -77 -205 -67 -208 q -56 -211 -46 -211 q -18 -211 2 -193 q 22 -174 35 -141 q 48 -108 56 -61 q 63 -13 68 44 q 72 102 73 169 q 74 236 75 310 q 52 309 32 308 q 13 306 0 302 q -1 304 -1 306 q -1 312 4 317 q 10 322 20 326 q 30 330 44 332 q 59 335 76 335 q 77 358 78 379 q 80 400 82 421 q 84 441 88 461 q 91 482 96 504 q 103 532 114 555 q 124 578 137 596 q 151 614 166 626 q 182 639 198 647 q 214 655 231 659 q 248 663 264 663 q 288 663 306 657 q 325 650 338 640 q 350 630 357 617 q 364 605 364 592 q 364 581 360 573 q 357 565 351 560 q 346 554 338 551 q 331 548 322 548 q 311 548 298 554 l 297 557 q 302 567 304 575 q 307 583 307 592 q 307 604 302 612 q 297 621 289 626 q 282 631 272 634 q 263 636 254 636 q 226 636 207 624 q 188 612 176 590 q 163 569 156 540 q 149 511 145 478 q 141 444 140 408 q 138 371 137 335 z"},"Q":{"x_min":0,"x_max":530,"ha":530,"o":"m 941 -110 q 917 -144 892 -167 q 868 -190 843 -204 q 818 -219 793 -226 q 767 -232 742 -232 q 714 -232 685 -225 q 656 -218 627 -206 q 598 -194 570 -179 q 541 -163 513 -146 q 485 -129 458 -111 q 430 -93 403 -77 q 376 -61 351 -48 q 325 -35 300 -27 q 286 -23 274 -20 q 261 -17 249 -15 q 238 -13 226 -11 q 215 -10 205 -8 q 166 0 134 21 q 102 41 79 74 q 57 107 44 152 q 32 198 32 255 q 32 297 39 337 q 45 377 59 412 q 73 448 93 478 q 113 507 140 529 q 167 550 201 562 q 235 574 275 574 q 324 574 365 557 q 406 540 436 506 q 466 473 482 422 q 499 372 499 306 q 499 269 493 233 q 488 197 477 165 q 466 133 450 105 q 434 77 412 55 q 391 33 364 18 q 338 3 306 -4 l 306 -6 q 333 -12 361 -22 q 389 -32 418 -45 q 446 -58 475 -73 q 504 -87 534 -102 q 563 -116 593 -130 q 622 -143 651 -153 q 681 -163 710 -169 q 739 -176 767 -176 q 789 -176 809 -172 q 830 -167 851 -159 q 871 -150 891 -135 q 910 -121 929 -100 z m 266 18 q 294 18 318 28 q 341 37 359 54 q 377 71 391 94 q 404 118 413 148 q 421 177 426 211 q 430 245 430 282 q 430 349 417 398 q 404 447 381 479 q 359 511 329 527 q 299 542 265 542 q 237 542 214 533 q 191 524 172 507 q 154 490 141 466 q 127 442 119 413 q 110 384 106 349 q 102 315 102 278 q 102 212 115 163 q 128 114 150 82 q 173 50 203 34 q 232 18 266 18 z"},"w":{"x_min":0,"x_max":491,"ha":491,"o":"m 292 -8 q 285 38 276 88 q 266 138 254 188 q 248 173 239 156 q 230 139 221 121 q 211 103 201 85 q 190 67 180 50 q 169 32 159 17 q 149 1 140 -11 l 114 -9 q 110 15 106 41 q 102 66 97 93 q 92 119 87 144 q 82 170 76 193 q 71 215 66 234 q 61 254 57 267 q 52 283 48 292 q 44 302 39 308 q 35 313 30 315 q 24 317 18 317 q 10 317 1 315 q -8 313 -20 311 l -24 328 q 9 340 33 346 q 57 352 67 352 q 73 352 78 350 q 84 348 89 343 q 94 337 98 328 q 103 319 107 304 q 111 294 115 279 q 119 263 123 244 q 128 225 133 203 q 138 181 142 157 q 147 133 151 108 q 156 83 159 59 q 164 67 171 79 q 178 92 186 106 q 194 120 202 135 q 209 150 216 164 q 222 178 227 190 q 232 203 234 211 q 236 217 236 223 q 237 229 237 234 q 237 242 236 250 q 235 259 234 268 q 232 277 230 285 q 228 294 226 302 q 224 309 224 312 q 224 320 229 325 q 234 329 246 329 q 254 329 262 327 q 270 325 277 321 q 285 291 293 257 q 302 224 309 190 q 317 156 324 122 q 332 89 337 58 q 354 85 371 113 q 387 142 400 170 q 413 198 421 226 q 428 254 428 280 q 428 291 427 301 q 426 312 422 321 q 418 331 412 339 q 406 348 397 355 l 400 361 q 404 362 408 362 q 412 362 416 362 q 449 362 464 347 q 480 331 480 304 q 480 283 472 257 q 463 231 450 202 q 436 173 419 143 q 402 113 384 85 q 366 57 349 32 q 332 8 318 -11 z"},"-":{"x_min":0,"x_max":247,"ha":247,"o":"m 224 208 q 226 203 227 198 q 228 192 228 188 q 228 181 225 177 q 222 173 217 170 q 211 168 202 167 q 193 167 180 167 q 168 167 156 167 q 144 167 132 168 q 119 169 107 170 q 95 170 83 170 q 66 170 51 169 q 35 167 20 163 q 20 177 25 186 q 30 195 40 200 q 49 204 63 206 q 76 207 93 207 q 110 207 130 206 q 149 205 172 205 q 186 205 200 206 q 213 207 224 208 z"},"E":{"x_min":0,"x_max":420,"ha":420,"o":"m 91 485 q 91 495 89 503 q 88 510 83 515 q 79 519 72 521 q 64 523 52 523 q 44 523 34 522 q 25 521 12 520 l 10 543 q 33 546 54 549 q 74 552 92 554 q 110 556 126 557 q 142 558 156 558 q 194 558 229 559 q 263 559 290 560 q 317 561 334 561 q 351 562 355 562 q 366 562 372 557 q 378 551 378 540 q 378 536 377 523 q 376 510 375 494 q 374 478 372 459 q 370 441 368 425 l 345 426 q 345 435 346 443 q 346 451 346 458 q 346 479 344 492 q 341 504 335 512 q 328 519 317 522 q 306 524 288 525 q 264 525 246 525 q 228 525 211 525 l 198 525 q 188 525 179 525 q 169 525 156 524 q 155 504 154 479 q 154 454 153 426 q 152 397 151 365 q 151 333 150 300 q 181 298 206 298 q 230 297 251 297 q 276 297 295 299 q 315 300 332 304 q 336 293 336 284 q 336 277 332 272 q 327 268 319 265 q 311 261 300 260 q 288 259 274 259 q 249 259 217 262 q 185 264 149 269 q 148 254 147 234 q 147 215 146 192 q 145 170 143 146 q 142 123 141 101 q 139 79 138 61 q 136 43 135 32 q 158 35 181 37 q 203 39 221 39 q 247 39 269 37 q 292 36 314 36 q 328 36 339 40 q 351 44 359 54 q 367 65 373 82 q 378 100 381 127 l 403 126 q 403 85 397 58 q 392 31 383 16 q 374 1 361 -5 q 348 -11 331 -11 q 318 -11 302 -9 q 286 -6 267 -3 q 249 0 227 2 q 205 5 180 5 q 157 5 131 2 q 104 -1 76 -8 l 72 -7 q 75 17 78 52 q 81 87 83 128 q 85 169 87 215 q 88 260 89 307 q 90 353 90 399 q 91 444 91 485 z"},"s":{"x_min":0,"x_max":290,"ha":290,"o":"m 66 88 q 68 70 76 56 q 84 43 96 34 q 108 26 122 21 q 137 17 151 17 q 165 17 177 21 q 190 25 199 31 q 209 38 214 48 q 220 58 220 71 q 220 84 214 94 q 208 103 198 111 q 188 119 174 126 q 160 133 146 140 q 133 146 120 152 q 107 159 94 166 q 82 173 72 182 q 61 190 53 201 q 45 211 41 224 q 36 237 36 252 q 36 269 42 283 q 48 298 58 309 q 68 320 81 329 q 95 337 110 343 q 125 349 141 352 q 157 354 172 354 q 192 354 209 350 q 227 346 240 338 q 253 330 260 318 q 268 306 268 292 q 268 286 266 279 q 264 273 260 267 q 255 261 247 257 q 240 253 229 253 q 219 253 207 256 l 207 259 q 210 267 211 273 q 213 280 213 285 q 213 297 207 304 q 202 312 193 317 q 185 322 175 324 q 165 326 155 326 q 138 326 124 322 q 110 317 101 309 q 92 302 87 292 q 82 282 82 271 q 82 258 89 247 q 96 237 107 228 q 119 219 134 211 q 150 203 166 196 q 185 187 203 177 q 221 168 236 156 q 250 144 259 129 q 268 113 268 92 q 268 67 257 47 q 246 28 227 14 q 209 1 185 -6 q 161 -13 135 -13 q 122 -13 108 -11 q 94 -9 81 -5 q 68 -1 57 5 q 45 10 36 18 q 28 25 23 34 q 18 43 18 54 q 18 64 22 71 q 26 77 32 81 q 39 85 47 88 q 55 90 64 90 z"},">":{"x_min":0,"x_max":385,"ha":385,"o":"m 355 156 q 330 145 302 133 q 275 122 247 109 q 219 97 191 85 q 163 72 137 59 q 111 47 88 35 q 65 23 46 11 q 38 16 34 23 q 29 30 29 35 q 29 40 31 43 q 32 47 36 52 q 40 56 48 61 q 56 67 70 74 q 84 81 105 90 q 125 99 154 111 q 183 124 222 139 q 260 154 310 174 q 262 193 225 209 q 188 224 160 236 q 131 249 112 258 q 92 267 78 274 q 65 281 57 286 q 49 292 45 296 q 41 300 40 304 q 39 308 39 312 q 39 318 43 324 q 48 331 56 336 q 74 325 96 312 q 118 300 144 288 q 169 275 196 262 q 224 250 251 237 q 279 225 305 214 q 332 202 356 192 z"},"l":{"x_min":0,"x_max":194,"ha":194,"o":"m 149 655 q 145 614 140 570 q 135 527 131 482 q 126 438 123 393 q 119 348 116 304 q 114 260 112 219 q 111 177 111 138 q 111 114 111 96 q 112 79 113 67 q 115 55 117 48 q 119 41 123 37 q 126 33 131 31 q 135 30 142 30 q 154 30 167 34 q 181 37 195 43 l 199 31 q 190 24 177 16 q 164 9 149 3 q 135 -3 120 -7 q 106 -11 96 -11 q 83 -11 75 -4 q 68 3 64 18 q 60 33 58 57 q 57 82 57 116 q 57 129 58 153 q 59 176 60 208 q 62 239 63 276 q 65 313 67 353 q 69 392 71 433 q 73 473 75 511 q 78 549 80 582 q 82 615 83 641 q 83 647 87 651 q 90 656 95 658 q 100 661 106 662 q 112 663 119 663 q 133 663 149 655 z"},"8":{"x_min":0,"x_max":381,"ha":381,"o":"m 338 425 q 338 401 329 379 q 320 358 305 339 q 290 321 271 305 q 252 289 232 277 q 247 269 262 261 q 277 252 290 243 q 303 234 315 224 q 326 213 334 200 q 343 188 347 173 q 352 157 352 139 q 352 108 339 81 q 325 53 302 32 q 278 11 244 -1 q 211 -13 171 -13 q 142 -13 116 -6 q 90 1 70 16 q 51 31 39 54 q 27 77 27 109 q 27 135 35 157 q 44 178 58 197 q 73 215 93 230 q 113 246 136 260 q 119 271 104 283 q 89 295 77 310 q 66 326 59 345 q 53 364 53 388 q 53 420 66 446 q 80 472 103 490 q 126 508 156 518 q 185 527 217 527 q 240 527 262 521 q 283 514 300 501 q 317 489 328 469 q 338 450 338 425 z m 157 248 q 142 237 129 225 q 116 212 106 198 q 96 183 91 166 q 86 148 86 128 q 86 106 92 86 q 98 66 111 51 q 124 36 142 28 q 161 19 187 19 q 206 19 226 24 q 245 30 260 41 q 276 53 285 70 q 294 87 294 110 q 294 135 285 153 q 275 172 259 186 q 243 201 222 213 q 201 225 179 236 z m 106 414 q 106 390 115 371 q 123 353 137 338 q 151 324 170 312 q 188 300 208 289 q 227 302 241 315 q 255 327 264 342 q 273 356 278 372 q 282 388 282 407 q 282 426 277 442 q 272 458 261 470 q 250 482 234 489 q 218 496 197 496 q 178 496 162 490 q 146 485 133 474 q 121 464 114 449 q 106 433 106 414 z"},"\\":{"x_min":0,"x_max":269,"ha":269,"o":"m 229 -91 q 200 15 174 111 q 148 207 123 292 q 98 376 72 449 q 47 521 20 581 l 21 583 q 37 588 49 588 q 59 588 67 584 q 75 580 82 572 q 89 564 94 551 q 100 538 105 520 q 111 499 120 466 q 128 433 139 389 q 150 346 163 293 q 177 240 192 180 q 207 119 223 52 q 240 -15 257 -86 z"},"e":{"x_min":0,"x_max":308,"ha":308,"o":"m 278 76 q 279 75 281 74 q 284 72 286 71 q 288 69 289 67 q 291 65 291 64 q 291 63 290 62 q 276 43 260 29 q 245 15 228 5 q 211 -4 193 -9 q 176 -13 158 -13 q 129 -13 105 -1 q 80 11 63 31 q 45 52 35 80 q 25 108 25 140 q 25 166 31 192 q 37 219 48 242 q 59 266 74 286 q 90 307 110 322 q 130 337 153 345 q 177 354 205 354 q 223 354 239 349 q 255 344 268 335 q 280 326 287 312 q 295 299 295 282 q 295 257 278 238 q 262 220 234 207 q 205 194 166 186 q 128 178 83 174 l 83 170 q 83 139 91 113 q 99 87 113 68 q 126 50 145 40 q 164 30 186 30 q 208 30 231 40 q 254 51 278 76 z m 232 272 q 232 283 228 293 q 224 302 217 310 q 211 317 201 321 q 192 325 181 325 q 166 325 153 320 q 140 314 129 304 q 119 295 111 282 q 104 269 98 255 q 93 240 89 225 q 86 210 84 196 q 119 198 146 204 q 174 210 193 219 q 212 229 222 242 q 232 255 232 272 z"},"b":{"x_min":0,"x_max":399,"ha":399,"o":"m 151 655 q 146 616 142 575 q 137 533 133 491 q 128 448 124 405 q 120 362 117 320 q 114 279 111 238 q 109 198 107 161 l 110 161 q 129 208 152 245 q 174 281 197 305 q 220 330 242 342 q 265 354 285 354 q 302 354 315 348 q 328 342 337 332 q 347 321 353 308 q 359 294 363 279 q 367 265 369 250 q 370 234 370 221 q 370 185 363 153 q 356 122 343 96 q 331 70 313 49 q 296 29 276 15 q 255 1 233 -6 q 210 -13 188 -13 q 173 -13 157 -10 q 142 -6 128 1 q 113 8 100 19 q 87 30 77 45 q 68 24 60 10 q 51 -4 43 -12 l 31 -9 q 44 29 50 81 q 57 133 60 199 q 61 228 63 264 q 65 300 67 340 q 69 380 71 422 q 73 464 75 503 q 78 543 80 578 q 82 614 83 641 q 83 647 87 651 q 90 656 95 658 q 101 661 107 662 q 114 663 120 663 q 135 663 151 655 z m 311 198 q 311 214 308 232 q 306 249 300 264 q 295 278 286 287 q 277 296 264 296 q 249 296 235 289 q 220 281 207 269 q 193 256 181 240 q 168 223 157 205 q 146 187 138 169 q 129 150 123 134 q 117 117 113 103 q 110 90 110 82 q 114 67 121 54 q 129 42 140 33 q 151 25 164 20 q 177 15 192 15 q 217 15 238 28 q 260 40 276 63 q 292 87 301 121 q 311 155 311 198 z"},"%":{"x_min":0,"x_max":724,"ha":724,"o":""},"m":{"x_min":0,"x_max":619,"ha":619,"o":"m -1 324 q 16 331 32 336 q 48 341 62 344 q 75 348 85 350 q 95 352 101 352 q 115 352 123 343 q 131 335 131 314 q 131 310 130 294 q 129 278 128 253 q 126 229 123 198 q 120 167 117 132 l 118 132 q 135 194 155 236 q 174 278 194 304 q 214 330 234 341 q 255 352 274 352 q 291 352 302 344 q 314 336 321 322 q 329 309 332 292 q 335 275 335 257 q 335 242 334 225 q 333 208 332 191 q 331 174 329 159 q 327 144 326 133 l 328 133 q 345 196 364 238 q 384 281 404 307 q 424 333 444 344 q 464 355 483 355 q 496 355 507 350 q 519 344 527 333 q 536 322 542 304 q 547 286 547 261 q 547 254 546 242 q 545 229 544 214 q 543 199 541 182 q 540 165 539 149 q 537 132 536 118 q 536 103 536 92 q 536 73 537 61 q 539 49 542 42 q 546 35 552 33 q 558 30 567 30 q 580 30 594 34 q 607 37 621 43 l 626 31 q 617 24 604 16 q 590 9 575 3 q 561 -3 546 -7 q 531 -11 520 -11 q 507 -11 499 -4 q 492 3 488 16 q 484 28 483 44 q 482 61 482 79 q 482 102 484 127 q 485 152 487 174 q 489 197 491 215 q 492 233 492 242 q 492 269 483 282 q 473 296 457 296 q 445 296 431 284 q 417 272 403 251 q 389 230 376 202 q 363 174 352 141 q 342 108 334 72 q 327 36 325 0 l 274 -6 l 270 -6 q 273 45 275 85 q 277 124 279 154 q 281 183 282 204 q 283 224 283 238 q 283 265 274 279 q 264 293 250 293 q 237 293 223 281 q 208 270 194 249 q 180 229 168 201 q 155 173 144 140 q 134 108 127 72 q 120 36 118 0 l 67 -6 l 63 -6 q 65 17 67 44 q 68 72 70 100 q 71 128 72 156 q 73 184 74 208 q 75 232 76 251 q 76 270 76 281 q 76 291 74 298 q 73 304 70 308 q 67 312 62 314 q 58 316 51 316 q 42 316 30 313 q 18 311 2 307 z"},"#":{"x_min":0,"x_max":417,"ha":417,"o":"m 155 440 q 156 441 158 441 q 160 441 162 441 q 173 441 180 436 q 186 431 186 420 q 186 413 185 402 q 184 391 182 377 q 181 362 178 344 q 176 326 173 305 q 195 305 218 305 q 240 304 265 304 q 269 332 273 358 q 277 383 281 405 q 284 424 290 432 q 296 441 306 441 q 310 441 314 440 q 318 439 324 437 q 318 403 312 370 q 306 338 301 304 l 335 304 q 348 304 361 305 q 373 305 384 307 q 386 302 387 297 q 387 292 387 288 q 387 282 385 278 q 383 274 377 272 q 372 270 363 269 q 354 268 342 268 l 319 268 q 313 268 307 268 q 302 268 296 269 q 292 243 288 219 q 284 194 281 168 l 320 168 q 333 168 346 169 q 359 169 369 171 q 371 166 372 161 q 373 156 373 152 q 373 146 370 142 q 368 138 362 136 q 357 134 348 133 q 340 132 327 132 l 302 132 q 296 132 289 132 q 283 132 276 133 q 268 65 260 -7 q 243 -7 236 -1 q 230 6 230 18 q 230 24 231 36 q 231 47 233 62 q 234 76 236 95 q 239 113 241 133 q 229 133 218 134 q 207 134 195 134 q 183 134 172 134 q 160 135 148 135 q 144 106 140 81 q 135 55 132 32 q 130 21 127 14 q 125 6 121 2 q 117 -3 112 -5 q 107 -7 101 -7 q 98 -7 95 -6 q 93 -6 90 -5 q 96 30 102 65 q 108 100 114 135 q 110 136 105 136 q 101 136 96 136 l 79 136 q 64 136 49 134 q 34 132 20 127 q 20 142 24 150 q 29 158 38 163 q 48 167 60 169 q 73 170 89 170 l 104 170 q 108 170 111 170 q 115 170 119 170 q 123 195 127 220 q 130 246 134 271 q 128 272 123 272 q 118 272 114 272 l 94 272 q 79 272 64 270 q 49 268 34 263 q 34 278 39 286 q 44 294 53 299 q 62 303 75 305 q 88 306 104 306 l 120 306 q 125 306 129 306 q 134 306 138 306 q 143 339 146 372 q 150 405 155 440 z m 168 271 q 165 246 161 221 q 157 195 154 169 q 176 169 198 169 q 221 168 246 168 q 249 193 253 218 q 256 243 260 269 z"},",":{"x_min":0,"x_max":164,"ha":164,"o":"m 18 -114 q 33 -106 45 -94 q 58 -83 67 -70 q 76 -56 82 -42 q 87 -28 87 -15 q 87 -4 84 2 q 81 9 77 14 q 73 18 67 22 q 62 25 58 29 q 54 33 51 39 q 48 44 48 53 q 48 61 51 68 q 53 75 58 80 q 63 86 70 89 q 77 92 86 92 q 98 92 107 86 q 116 81 122 72 q 128 64 131 53 q 135 42 135 30 q 135 11 128 -12 q 121 -34 108 -55 q 95 -77 75 -96 q 55 -115 29 -127 z"},"n":{"x_min":0,"x_max":429,"ha":429,"o":"m 76 281 q 76 291 74 298 q 73 304 70 308 q 67 312 62 314 q 58 316 51 316 q 42 316 30 313 q 18 311 2 307 l -1 324 q 16 331 32 336 q 48 341 62 344 q 75 348 85 350 q 95 352 101 352 q 115 352 123 343 q 131 335 131 314 q 131 312 131 303 q 130 294 130 281 q 129 267 127 249 q 126 231 125 211 q 123 191 121 170 q 119 149 117 127 l 118 127 q 137 190 158 234 q 179 277 201 304 q 223 331 245 343 q 267 355 287 355 q 300 355 313 350 q 326 344 336 333 q 345 322 351 304 q 357 287 357 261 q 357 254 356 242 q 355 229 354 214 q 353 199 351 182 q 350 165 349 149 q 347 133 347 118 q 346 103 346 92 q 346 73 347 61 q 349 49 353 42 q 356 35 362 33 q 368 30 377 30 q 390 30 404 34 q 417 37 431 43 l 436 31 q 427 24 414 16 q 400 9 385 3 q 371 -3 356 -7 q 341 -11 330 -11 q 317 -11 309 -4 q 302 3 298 16 q 294 28 293 44 q 292 61 292 79 q 292 102 294 127 q 295 151 297 173 q 299 195 301 213 q 302 231 302 241 q 302 270 292 284 q 281 297 263 297 q 249 297 233 285 q 218 273 202 252 q 187 231 172 203 q 158 175 146 141 q 135 108 127 72 q 120 36 118 0 l 67 -6 l 63 -6 q 65 17 67 44 q 68 72 70 100 q 71 128 72 156 q 73 184 74 208 q 75 232 76 251 q 76 270 76 281 z"},"h":{"x_min":0,"x_max":415,"ha":415,"o":"m 104 130 q 123 191 144 234 q 165 277 187 304 q 209 331 231 343 q 252 355 272 355 q 286 355 299 349 q 311 344 321 333 q 331 322 337 305 q 343 288 343 263 q 343 256 342 244 q 341 231 340 215 q 339 200 337 183 q 335 166 334 149 q 333 133 332 118 q 331 103 331 92 q 331 73 333 61 q 334 49 338 42 q 342 35 348 33 q 354 30 363 30 q 375 30 389 34 q 403 37 417 43 l 421 31 q 413 24 399 16 q 386 9 371 3 q 356 -3 342 -7 q 327 -11 316 -11 q 302 -11 295 -4 q 287 3 284 16 q 280 28 279 44 q 278 61 278 79 q 278 102 279 126 q 281 150 283 173 q 284 195 286 213 q 288 232 288 243 q 288 270 277 284 q 267 297 249 297 q 235 297 219 285 q 203 273 188 252 q 172 231 158 203 q 144 175 132 141 q 121 108 113 72 q 105 36 104 0 l 52 -6 l 48 -6 q 49 23 51 57 q 53 92 55 131 q 57 170 59 213 q 62 255 64 299 q 66 343 69 388 q 71 432 73 476 q 76 520 78 561 q 80 603 82 641 q 82 647 85 651 q 89 656 94 658 q 99 661 105 662 q 111 663 118 663 q 133 663 149 655 q 143 605 139 564 q 135 522 131 487 q 127 451 125 420 q 122 390 120 361 q 117 333 115 306 q 113 280 111 252 q 109 224 107 194 q 105 164 103 130 z"},"z":{"x_min":0,"x_max":334,"ha":334,"o":"m 15 3 q 21 13 32 28 q 43 44 58 63 q 73 83 91 104 q 109 126 128 148 q 147 171 166 192 q 185 214 201 233 q 218 251 231 266 q 245 281 254 289 l 252 291 q 242 289 230 288 q 218 287 207 287 q 190 287 175 288 q 160 289 147 291 q 135 292 125 293 q 116 294 111 294 q 100 294 92 292 q 83 289 77 282 q 70 275 66 263 q 62 251 61 234 l 42 234 q 42 247 43 261 q 43 274 45 287 q 47 300 51 311 q 54 322 61 330 q 68 338 79 343 q 90 348 105 348 q 118 348 134 346 q 150 344 168 342 q 185 340 204 339 q 222 337 240 337 q 259 337 276 340 q 293 343 305 350 l 319 339 q 314 328 304 313 q 294 297 280 279 q 267 260 250 240 q 234 219 216 198 q 198 177 180 155 q 162 134 145 115 q 128 95 112 79 q 97 62 85 49 l 87 48 q 92 50 98 51 q 104 53 110 54 q 116 55 122 56 q 129 57 134 57 q 149 57 164 54 q 180 52 194 49 q 208 47 221 44 q 235 42 246 42 q 257 42 267 45 q 276 48 283 55 q 291 63 296 75 q 301 88 302 108 l 321 106 q 320 71 315 48 q 309 25 300 12 q 290 -1 277 -6 q 264 -12 249 -12 q 233 -12 215 -8 q 197 -4 177 1 q 158 6 138 10 q 118 14 98 14 q 80 14 63 9 q 46 4 30 -8 z"},"B":{"x_min":0,"x_max":440,"ha":440,"o":"m 136 31 q 155 26 171 24 q 188 22 205 22 q 235 22 261 30 q 288 37 307 53 q 327 69 338 94 q 349 119 349 154 q 349 187 338 211 q 326 236 305 252 q 284 269 252 277 q 221 285 181 285 q 173 285 165 285 q 157 284 149 284 q 148 269 147 249 q 147 229 146 206 q 145 184 144 159 q 143 135 141 112 q 140 89 139 68 q 138 47 136 31 z m 155 535 q 155 519 154 496 q 154 473 153 444 q 152 416 151 382 q 150 348 149 311 q 171 311 192 314 q 212 317 231 323 q 250 330 266 339 q 282 349 294 363 q 306 377 313 396 q 320 415 320 438 q 320 467 311 486 q 302 505 286 517 q 270 529 249 534 q 228 539 204 539 q 192 539 180 538 q 167 537 155 535 z m 91 485 q 91 495 89 503 q 88 510 83 515 q 79 519 72 521 q 64 524 52 524 q 36 524 11 520 l 9 542 q 31 546 57 550 q 83 555 111 558 q 138 562 166 564 q 194 567 220 567 q 242 567 262 564 q 283 562 301 557 q 319 552 335 544 q 350 535 361 523 q 373 510 379 494 q 385 477 385 455 q 385 423 374 399 q 363 374 343 356 q 324 338 299 325 q 274 313 246 306 l 246 303 q 282 301 313 291 q 344 282 367 264 q 390 247 403 221 q 416 195 416 159 q 416 130 407 106 q 399 82 385 63 q 370 45 351 31 q 331 18 308 10 q 285 1 260 -3 q 234 -7 208 -7 q 187 -7 167 -4 q 148 -2 125 2 l 78 -4 l 74 -3 q 77 29 79 66 q 82 104 84 144 q 86 185 87 228 q 89 271 89 315 q 90 358 91 401 q 91 444 91 485 z"},"K":{"x_min":0,"x_max":474,"ha":474,"o":"m 210 309 q 241 256 266 217 q 291 178 312 150 q 332 121 349 101 q 365 81 379 67 q 390 57 399 50 q 407 42 416 38 q 424 33 432 31 q 440 30 448 30 q 458 30 469 32 q 479 34 493 39 l 500 19 q 482 11 467 6 q 453 0 441 -4 q 429 -7 419 -9 q 409 -11 400 -11 q 392 -11 384 -9 q 377 -7 370 -3 q 363 0 355 6 q 348 12 340 20 q 326 32 309 53 q 291 74 269 106 q 246 138 219 182 q 192 225 159 282 l 159 285 l 177 311 q 217 368 251 414 q 285 461 315 495 q 345 528 372 546 q 399 564 425 564 q 436 564 444 561 q 453 558 458 553 q 464 548 466 541 q 469 534 469 527 q 469 515 463 503 q 458 492 447 484 l 445 484 q 436 494 425 498 q 415 501 406 501 q 386 501 363 486 q 341 470 316 444 q 291 418 265 383 q 238 348 210 309 z m 91 484 q 91 495 89 504 q 88 512 83 517 q 79 522 71 524 q 64 527 52 527 q 36 527 10 523 l 8 543 q 43 552 68 557 q 93 561 109 561 q 126 561 135 557 q 144 553 149 544 q 153 536 154 524 q 155 511 155 496 q 155 492 155 477 q 155 463 154 440 q 153 418 152 388 q 151 358 150 323 q 149 288 148 249 q 147 210 146 168 q 145 127 143 84 q 142 42 141 0 l 83 -7 l 78 -7 q 81 63 84 127 q 86 190 88 250 q 89 310 90 367 q 91 425 91 484 z"},"R":{"x_min":0,"x_max":472,"ha":472,"o":"m 91 485 q 91 495 89 503 q 88 510 83 515 q 79 519 72 521 q 64 524 52 524 q 36 524 11 520 l 8 542 q 31 546 58 550 q 85 555 113 558 q 142 562 170 564 q 199 567 225 567 q 261 567 291 560 q 321 554 344 540 q 366 525 378 501 q 391 478 391 443 q 391 410 380 383 q 370 356 350 335 q 331 314 303 299 q 276 283 242 275 q 267 231 288 198 q 309 165 326 141 q 344 116 358 98 q 372 80 385 67 q 395 57 404 50 q 413 42 421 38 q 429 34 437 32 q 446 30 455 30 q 464 30 473 32 q 482 34 492 38 l 499 18 q 468 3 444 -4 q 420 -10 404 -10 q 396 -10 389 -9 q 382 -7 375 -3 q 367 0 360 6 q 353 12 345 20 q 332 32 315 54 q 297 75 276 107 q 254 139 227 183 q 200 227 168 285 l 169 288 q 212 290 242 300 q 272 310 290 328 q 309 345 317 370 q 325 394 325 424 q 325 481 295 510 q 265 539 205 539 q 193 539 181 538 q 170 537 156 535 q 155 516 154 485 q 154 453 152 412 q 151 371 150 323 q 148 274 147 221 q 146 168 144 112 q 142 56 140 0 l 83 -7 l 78 -7 q 81 63 83 126 q 86 189 88 248 q 89 308 90 366 q 91 424 91 485 z"},"T":{"x_min":0,"x_max":411,"ha":411,"o":"m 28 417 l 4 418 q 3 448 3 470 q 3 494 5 511 q 7 528 14 539 q 21 550 35 555 q 48 560 70 560 q 84 560 102 560 q 120 559 140 558 q 160 557 181 557 q 202 556 222 556 q 255 556 281 556 q 306 556 326 556 q 345 557 360 557 q 375 558 388 559 q 400 560 411 561 q 421 562 432 564 q 436 552 436 545 q 436 529 423 520 q 409 512 383 512 q 357 512 323 515 q 289 518 247 521 q 246 485 245 444 q 244 403 242 359 q 241 315 240 269 q 239 223 237 178 q 236 132 234 87 q 233 42 232 0 l 174 -7 l 169 -7 q 171 40 173 83 q 175 125 176 167 q 178 208 179 249 q 180 290 181 334 q 182 377 182 424 q 183 471 183 524 q 169 525 154 525 q 140 525 125 525 q 110 525 97 525 q 84 524 73 521 q 63 519 54 512 q 46 506 40 495 q 34 483 31 466 q 28 448 28 423 z"},"P":{"x_min":0,"x_max":414,"ha":414,"o":"m 91 485 q 91 495 89 503 q 88 510 83 515 q 79 519 72 521 q 64 524 52 524 q 36 524 11 520 l 8 542 q 31 546 58 550 q 85 555 114 558 q 143 562 172 564 q 201 567 227 567 q 262 567 293 560 q 324 554 347 539 q 370 523 384 498 q 397 472 397 434 q 397 389 382 354 q 367 318 340 293 q 313 269 275 256 q 237 243 191 243 q 181 243 177 246 q 173 249 173 260 l 173 263 q 173 265 173 266 q 209 266 234 274 q 260 281 278 294 q 295 306 306 322 q 316 337 322 354 q 328 371 329 387 q 331 404 331 417 q 331 452 321 476 q 311 499 294 513 q 277 527 255 533 q 232 539 206 539 q 193 539 182 538 q 170 537 156 535 q 155 516 154 485 q 154 453 152 412 q 151 371 150 323 q 148 274 147 221 q 146 168 144 112 q 142 56 140 0 l 83 -7 l 78 -7 q 81 63 83 126 q 86 189 88 248 q 89 308 90 366 q 91 424 91 485 z"},"|":{"x_min":0,"x_max":281,"ha":281,"o":"m 158 -233 l 127 -237 l 122 -236 l 122 646 q 122 648 124 650 q 125 652 128 653 q 131 655 135 655 q 138 656 141 656 q 150 656 158 652 z"},"t":{"x_min":0,"x_max":242,"ha":242,"o":"m 156 528 q 146 481 139 432 q 132 383 127 334 q 138 334 149 334 q 160 333 170 333 q 179 333 187 333 q 194 333 199 333 q 222 333 236 336 q 237 332 238 328 q 239 325 239 322 q 239 311 230 308 q 221 305 204 305 q 188 305 168 307 q 148 309 124 310 q 122 284 120 259 q 118 235 117 213 q 116 191 115 172 q 115 153 115 139 q 115 113 117 93 q 120 72 127 58 q 134 43 146 36 q 158 28 176 28 q 189 28 205 33 q 222 38 242 48 q 249 41 250 32 q 235 22 219 14 q 204 5 189 0 q 174 -6 160 -10 q 146 -13 134 -13 q 118 -13 104 -7 q 91 -1 81 15 q 71 30 65 56 q 60 82 60 121 q 60 143 61 167 q 61 190 62 215 q 64 239 66 263 q 68 287 70 311 q 51 310 34 309 q 18 308 6 305 q 5 306 5 308 q 5 313 10 318 q 15 322 24 326 q 33 330 46 332 q 58 334 73 335 q 79 386 85 432 q 91 477 98 513 q 99 519 102 523 q 105 528 110 530 q 114 532 119 533 q 125 534 129 534 q 137 534 144 533 q 150 531 156 528 z"},"M":{"x_min":0,"x_max":644,"ha":644,"o":"m 658 18 q 641 10 626 5 q 611 0 599 -4 q 586 -8 575 -9 q 564 -11 554 -11 q 540 -11 529 -6 q 519 0 512 11 q 505 23 501 43 q 498 62 498 91 l 498 113 q 498 128 498 148 q 498 168 499 190 q 499 212 499 236 q 500 259 500 280 q 500 302 501 321 q 501 340 502 353 q 503 381 505 410 q 506 438 509 466 l 507 466 q 503 455 497 441 q 491 427 482 407 q 461 360 438 309 q 416 259 393 206 q 370 153 347 99 q 324 44 301 -10 l 289 -10 q 284 7 277 30 q 269 52 260 78 q 252 105 242 134 q 232 163 222 193 q 211 223 201 253 q 191 282 181 310 q 171 338 163 362 q 154 386 147 405 q 139 427 134 445 q 128 462 124 475 l 122 474 q 122 467 122 460 q 122 452 122 444 l 122 404 q 122 365 121 325 q 120 284 118 245 q 116 206 113 169 q 111 133 108 102 q 105 76 103 58 q 101 40 99 28 q 96 16 92 9 q 89 2 83 -2 q 78 -6 70 -7 q 62 -8 51 -8 l 43 -8 q 41 -8 38 -7 q 35 -7 30 -7 l 27 -5 q 38 19 47 48 q 56 77 63 110 q 70 143 74 178 q 79 213 83 248 q 86 283 88 317 q 90 351 91 381 q 92 412 92 438 q 93 463 93 483 q 93 495 91 503 q 89 511 85 516 q 81 521 73 523 q 66 524 54 524 q 46 524 36 523 q 25 522 12 520 l 10 542 q 54 552 83 557 q 112 562 129 562 q 138 562 144 560 q 151 559 155 555 q 160 551 164 545 q 167 539 171 530 q 184 493 198 453 q 213 412 228 369 q 243 327 258 284 q 273 242 287 202 q 292 186 297 173 q 301 160 305 149 q 309 137 312 127 q 315 117 318 107 l 320 107 q 324 118 328 128 q 332 138 337 149 q 341 160 347 172 q 352 185 359 200 q 376 239 395 281 q 413 323 432 367 q 452 411 472 456 q 492 501 512 547 q 514 552 518 555 q 522 558 526 560 q 531 562 536 562 q 541 563 545 563 q 552 563 560 561 q 569 560 577 556 q 573 516 570 479 q 567 443 565 408 q 563 374 562 340 q 561 306 560 271 q 559 237 559 201 q 558 165 558 126 q 558 100 561 82 q 563 64 568 52 q 574 41 583 35 q 592 30 606 30 q 611 30 616 30 q 621 30 626 31 q 631 32 637 34 q 644 35 652 38 z"},"g":{"x_min":0,"x_max":375,"ha":375,"o":"m 293 304 q 305 287 310 269 q 315 250 315 232 q 315 213 310 194 q 305 176 295 159 q 285 143 272 129 q 258 115 242 105 q 225 95 206 89 q 187 84 166 84 q 161 84 156 84 q 150 85 145 85 q 136 84 129 80 q 122 77 117 72 q 111 68 108 62 q 105 57 105 52 q 105 41 114 33 q 122 26 136 20 q 151 15 169 10 q 188 6 208 2 q 227 -2 244 -6 q 262 -10 278 -16 q 294 -21 308 -28 q 322 -36 332 -45 q 342 -55 347 -68 q 353 -81 353 -97 q 353 -119 345 -138 q 338 -158 324 -175 q 310 -192 291 -206 q 271 -220 248 -231 q 225 -241 199 -246 q 172 -252 145 -252 q 128 -252 111 -249 q 93 -247 75 -242 q 58 -237 42 -229 q 27 -221 15 -210 q 2 -199 -5 -184 q -12 -169 -12 -151 q -12 -135 -7 -121 q -1 -106 7 -94 q 16 -81 27 -71 q 39 -60 52 -51 q 64 -43 78 -36 q 91 -30 104 -27 l 104 -25 q 95 -21 86 -16 q 78 -11 71 -5 q 64 2 59 11 q 55 20 55 31 q 55 43 61 53 q 67 63 75 70 q 84 78 95 84 q 105 89 115 94 q 96 101 81 112 q 67 124 57 138 q 46 153 41 170 q 36 188 36 206 q 36 238 48 266 q 61 293 82 312 q 103 332 131 344 q 158 355 189 355 q 201 355 211 353 q 220 351 229 349 q 237 346 244 343 q 251 340 257 337 q 266 333 275 329 q 284 325 296 325 q 306 325 315 329 q 324 332 331 338 q 337 344 341 352 q 345 361 345 372 q 345 374 345 375 q 345 377 345 379 l 348 381 q 365 373 373 361 q 381 350 381 338 q 381 329 378 322 q 374 314 367 309 q 361 304 351 302 q 342 299 331 299 q 314 299 294 306 z m 132 -37 q 115 -42 99 -50 q 84 -59 72 -72 q 60 -84 53 -100 q 46 -116 46 -135 q 46 -159 57 -176 q 67 -193 83 -204 q 100 -215 120 -221 q 140 -226 160 -226 q 187 -226 211 -218 q 236 -210 254 -195 q 273 -181 284 -161 q 294 -141 294 -118 q 294 -104 289 -95 q 284 -86 274 -79 q 265 -72 252 -67 q 239 -62 224 -58 q 203 -52 180 -48 q 157 -43 132 -37 z m 183 111 q 196 111 206 115 q 217 120 225 127 q 234 135 240 145 q 245 155 249 166 q 253 177 255 189 q 257 201 257 211 q 257 225 254 239 q 252 252 247 265 q 243 278 235 290 q 228 301 219 309 q 209 318 197 323 q 185 327 170 327 q 156 327 145 323 q 134 319 125 311 q 117 303 111 294 q 105 284 101 273 q 97 261 95 250 q 94 239 94 228 q 94 215 96 201 q 98 187 103 174 q 108 161 116 149 q 123 138 133 129 q 143 121 155 116 q 168 111 183 111 z"},"j":{"x_min":0,"x_max":178,"ha":178,"o":"m 97 453 q 89 453 83 457 q 76 460 71 466 q 67 472 64 479 q 62 487 62 495 q 62 506 65 514 q 69 523 75 528 q 81 534 88 537 q 94 540 101 540 q 110 540 116 537 q 123 534 127 528 q 132 523 135 516 q 137 509 137 501 q 137 492 134 484 q 132 475 126 469 q 121 462 114 457 q 106 453 97 453 z m 124 344 q 123 307 122 269 q 122 230 120 191 q 118 152 115 113 q 113 74 108 37 q 104 0 98 -35 q 92 -70 83 -101 q 71 -142 53 -170 q 35 -198 14 -215 q -7 -232 -30 -240 q -52 -247 -73 -247 q -92 -247 -108 -243 q -124 -238 -135 -231 q -146 -224 -153 -214 q -159 -205 -159 -194 q -159 -188 -156 -182 q -153 -176 -148 -171 q -143 -166 -136 -163 q -130 -160 -122 -160 q -108 -185 -89 -196 q -70 -207 -48 -207 q -32 -207 -18 -201 q -5 -196 7 -182 q 25 -160 36 -118 q 47 -75 53 -11 q 58 53 60 138 q 62 223 62 329 q 62 336 65 340 q 69 345 73 347 q 78 349 83 350 q 89 351 93 351 q 110 351 124 344 z"},"i":{"x_min":0,"x_max":192,"ha":192,"o":"m 105 454 q 96 454 90 457 q 83 461 79 467 q 74 472 72 480 q 69 487 69 495 q 69 506 73 515 q 76 523 82 529 q 88 534 95 537 q 102 540 109 540 q 117 540 124 537 q 131 534 135 529 q 140 523 143 516 q 145 509 145 501 q 145 493 142 484 q 139 476 134 469 q 129 462 121 458 q 114 454 105 454 z m 126 344 q 122 316 119 288 q 116 260 114 234 q 113 208 112 184 q 111 161 111 142 q 111 117 112 99 q 112 80 114 68 q 116 55 118 48 q 121 41 125 36 q 128 32 133 31 q 138 30 145 30 q 156 30 170 34 q 184 37 198 43 l 202 31 q 193 24 180 16 q 167 9 152 3 q 137 -3 123 -7 q 109 -11 99 -11 q 92 -11 87 -10 q 81 -9 77 -4 q 72 0 68 9 q 65 17 63 32 q 60 47 59 69 q 58 91 58 122 q 58 140 58 163 q 59 186 59 213 q 60 239 61 269 q 62 298 64 329 q 65 336 68 340 q 71 345 76 347 q 81 349 86 350 q 91 351 95 351 q 112 351 126 344 z"},"y":{"x_min":0,"x_max":331,"ha":331,"o":"m 139 -2 q 132 21 125 46 q 118 72 110 97 q 103 123 96 148 q 88 173 81 195 q 74 218 68 237 q 62 256 57 270 q 52 284 47 294 q 42 303 37 308 q 32 313 26 315 q 21 317 14 317 q 6 317 -3 315 q -12 313 -24 311 l -28 328 q -13 333 1 338 q 15 342 27 345 q 39 349 48 350 q 57 352 63 352 q 69 352 75 350 q 81 348 86 342 q 92 337 97 327 q 102 317 107 303 q 110 293 115 279 q 120 264 125 246 q 131 228 137 206 q 144 184 150 161 q 157 137 163 112 q 169 88 175 63 q 188 95 201 130 q 214 165 228 200 q 242 235 255 270 q 269 304 282 336 q 284 341 288 345 q 292 348 296 350 q 301 352 306 353 q 311 354 316 354 q 324 354 331 352 q 339 349 346 346 q 335 328 323 306 q 311 284 299 260 q 286 235 274 208 q 261 181 249 153 q 236 125 224 97 q 212 69 201 42 q 189 14 179 -13 q 169 -40 159 -65 q 149 -91 140 -114 q 130 -137 121 -157 q 111 -176 101 -193 q 90 -209 78 -221 q 65 -232 50 -239 q 34 -246 16 -246 q 4 -246 -5 -243 q -14 -240 -21 -235 q -27 -230 -31 -223 q -34 -217 -34 -209 q -34 -201 -29 -193 q -24 -184 -17 -180 q -6 -186 4 -189 q 15 -191 23 -191 q 43 -191 58 -181 q 74 -170 88 -148 q 101 -126 115 -94 q 129 -61 146 -17 l 151 -4 z"},"@":{"x_min":0,"x_max":677,"ha":677,"o":"m 475 344 q 473 326 470 303 q 466 279 463 252 q 459 226 457 198 q 454 170 454 144 q 454 133 455 120 q 455 107 457 94 q 459 81 463 69 q 466 58 472 49 q 478 40 487 34 q 496 29 509 29 q 528 29 543 41 q 559 53 571 74 q 582 96 589 125 q 596 155 596 190 q 596 220 590 250 q 585 280 573 308 q 561 336 543 360 q 524 385 498 403 q 471 421 437 431 q 402 442 359 442 q 320 442 284 431 q 249 421 218 402 q 188 382 163 355 q 139 327 121 292 q 104 258 94 217 q 85 176 85 130 q 85 87 94 51 q 104 15 121 -14 q 138 -43 161 -65 q 185 -86 213 -101 q 240 -115 271 -123 q 302 -130 334 -130 q 365 -130 396 -124 q 427 -117 457 -104 q 487 -90 514 -70 q 541 -50 564 -23 l 579 -36 q 553 -69 522 -93 q 491 -117 457 -134 q 423 -150 387 -158 q 351 -166 316 -166 q 280 -166 246 -158 q 212 -151 182 -135 q 151 -119 125 -96 q 100 -73 81 -42 q 63 -12 52 26 q 42 64 42 109 q 42 164 55 212 q 68 260 91 301 q 114 342 145 374 q 177 406 213 428 q 250 451 291 463 q 332 475 374 475 q 418 475 454 465 q 491 456 520 439 q 549 422 570 398 q 592 374 606 345 q 620 316 627 283 q 635 249 635 213 q 635 192 631 168 q 627 143 620 119 q 612 94 601 72 q 589 49 573 31 q 557 14 537 3 q 516 -7 491 -7 q 474 -7 461 -3 q 448 2 438 10 q 428 18 422 29 q 415 40 411 52 q 407 65 406 78 q 404 91 404 104 q 404 129 407 151 q 411 174 415 191 l 413 192 q 395 147 375 111 q 355 74 334 49 q 313 24 291 10 q 270 -3 248 -3 q 227 -3 212 7 q 197 17 188 34 q 178 51 174 73 q 169 95 169 119 q 169 151 177 180 q 184 208 196 233 q 208 258 225 278 q 242 298 261 313 q 281 327 302 335 q 324 343 345 343 q 365 343 382 336 q 400 329 417 315 l 417 329 q 418 341 426 346 q 433 351 446 351 q 454 351 461 349 q 467 348 475 344 z m 416 290 q 406 297 398 302 q 390 307 383 310 q 375 313 368 314 q 361 315 353 315 q 325 315 301 301 q 278 287 261 263 q 244 239 235 208 q 226 176 226 142 q 226 135 226 125 q 227 116 229 106 q 230 96 233 87 q 236 77 241 70 q 246 62 253 58 q 260 53 269 53 q 281 53 293 60 q 306 66 318 78 q 330 89 342 105 q 354 120 364 138 q 375 156 384 176 q 393 196 399 216 q 406 235 410 254 q 415 273 416 290 z"},".":{"x_min":0,"x_max":164,"ha":164,"o":"m 86 -10 q 77 -10 70 -6 q 63 -3 59 3 q 54 9 51 16 q 49 24 49 32 q 49 43 53 52 q 56 60 62 66 q 68 72 76 74 q 83 77 90 77 q 98 77 105 74 q 112 71 117 66 q 122 61 125 53 q 127 46 127 38 q 127 29 125 21 q 122 12 116 5 q 111 -1 103 -6 q 95 -10 86 -10 z"},"p":{"x_min":0,"x_max":413,"ha":413,"o":"m -9 326 q 19 334 38 339 q 57 344 70 347 q 83 350 91 351 q 98 352 102 352 q 108 352 113 350 q 119 349 123 344 q 127 340 129 332 q 131 325 131 314 q 131 310 131 300 q 130 289 129 270 q 128 251 127 224 q 125 196 123 159 l 126 159 q 145 206 167 243 q 189 279 212 304 q 235 329 257 342 q 280 354 301 354 q 317 354 330 348 q 343 342 352 332 q 361 321 368 308 q 374 294 378 279 q 382 265 384 250 q 385 234 385 221 q 385 185 378 154 q 371 123 358 97 q 345 71 328 50 q 311 30 290 16 q 270 2 248 -6 q 226 -13 204 -13 q 180 -13 158 -5 q 135 4 115 24 q 113 -38 110 -103 q 107 -168 107 -239 l 56 -245 l 51 -245 q 54 -199 58 -149 q 61 -99 63 -48 q 66 2 68 51 q 71 100 72 143 q 73 186 74 221 q 75 256 75 279 q 75 288 74 295 q 73 302 70 307 q 68 312 62 314 q 57 316 48 316 q 39 316 26 314 q 13 312 -5 308 z m 118 50 q 138 33 159 24 q 180 16 200 16 q 228 16 251 28 q 274 39 291 62 q 307 85 317 119 q 326 153 326 198 q 326 214 324 232 q 321 249 316 264 q 310 278 301 287 q 292 296 280 296 q 265 296 250 288 q 235 281 222 268 q 208 255 195 237 q 182 219 171 200 q 160 180 151 159 q 141 138 134 119 q 127 99 123 81 q 119 64 118 50 z"},"X":{"x_min":0,"x_max":478,"ha":478,"o":"m 168 521 q 189 474 210 427 q 231 379 253 330 q 267 352 281 376 q 295 399 309 425 q 324 451 340 479 q 356 508 375 541 q 379 548 383 552 q 387 557 392 559 q 397 562 402 562 q 407 563 414 563 q 423 563 435 560 q 446 557 457 549 q 432 521 407 489 q 382 457 358 424 q 334 390 312 357 q 289 324 270 293 q 297 234 323 177 q 348 120 374 67 q 379 55 386 48 q 392 41 399 37 q 406 33 413 31 q 421 30 428 30 q 439 30 451 32 q 462 35 474 39 l 481 19 q 450 6 424 -3 q 398 -11 379 -11 q 370 -11 363 -9 q 355 -8 349 -4 q 342 1 336 8 q 331 16 325 27 q 301 80 277 134 q 253 189 228 244 q 204 205 182 168 q 161 132 144 100 q 126 69 112 43 q 98 18 89 0 l 10 -9 l 7 -7 q 44 42 74 83 q 104 124 129 159 q 153 194 173 224 q 194 253 212 281 q 199 308 187 335 q 174 363 162 389 q 151 416 139 441 q 128 466 117 489 q 112 500 106 507 q 101 514 95 518 q 88 522 81 524 q 73 526 64 526 q 47 526 24 522 l 21 543 q 58 552 82 558 q 106 563 122 563 q 131 563 138 561 q 144 558 149 553 q 154 548 158 540 q 163 532 168 521 z"},"*":{"x_min":0,"x_max":274,"ha":274,"o":"m 230 506 q 234 507 238 507 q 242 507 246 505 q 250 502 253 497 q 256 491 258 484 q 260 476 260 466 q 247 465 235 463 q 222 461 210 458 q 197 456 185 453 q 172 450 158 446 q 168 440 179 433 q 189 426 199 419 q 209 412 218 406 q 227 400 232 396 q 236 393 238 390 q 239 386 239 383 q 239 378 237 374 q 235 369 231 365 q 227 360 223 357 q 218 353 213 351 q 205 361 197 371 q 189 381 181 390 q 173 399 164 409 q 155 418 145 428 q 144 417 143 404 q 142 391 142 379 q 141 367 140 357 q 139 347 138 340 q 138 335 136 332 q 134 329 131 328 q 128 326 125 325 q 121 325 118 325 q 110 325 103 327 q 96 330 89 334 q 94 346 99 358 q 104 370 108 382 q 112 394 115 406 q 119 418 123 432 q 113 427 101 421 q 90 416 79 410 q 68 405 59 400 q 49 396 43 393 q 40 392 36 392 q 32 392 29 394 q 25 396 21 401 q 18 406 16 414 q 13 422 13 433 q 26 434 39 436 q 51 438 63 440 q 75 443 88 446 q 101 448 114 452 q 104 458 94 466 q 83 473 73 479 q 63 486 54 492 q 46 498 41 502 q 37 505 35 509 q 34 512 34 515 q 34 520 36 525 q 38 530 42 534 q 45 538 50 542 q 55 546 60 548 q 68 537 76 527 q 83 518 92 508 q 100 499 109 489 q 118 480 128 470 q 129 481 130 494 q 130 507 131 519 q 132 531 133 542 q 134 552 134 559 q 135 563 137 567 q 139 570 142 571 q 145 573 148 574 q 152 574 155 574 q 163 574 170 572 q 177 569 184 564 q 178 552 174 541 q 169 529 165 517 q 161 506 157 493 q 154 481 150 467 q 160 472 172 478 q 184 484 194 489 q 205 494 215 499 q 224 503 230 506 z"},"Y":{"x_min":0,"x_max":410,"ha":410,"o":"m 113 538 q 117 530 123 516 q 129 503 136 485 q 144 468 152 448 q 160 428 168 407 q 177 386 185 364 q 193 343 200 323 q 206 305 211 291 q 215 276 219 262 l 220 262 q 232 289 244 316 q 256 344 267 371 q 279 397 290 422 q 302 447 312 469 q 322 491 331 509 q 340 527 346 540 q 351 548 355 552 q 360 557 365 560 q 371 562 376 563 q 382 563 389 563 q 393 563 397 562 q 402 562 407 560 q 411 559 416 557 q 420 555 424 552 q 388 504 361 461 q 333 418 313 382 q 292 346 278 317 q 264 289 256 270 q 250 257 246 245 q 242 233 239 219 q 236 205 234 188 q 232 171 231 147 q 231 132 230 116 q 229 99 229 82 q 228 64 227 44 q 227 23 226 0 l 168 -7 l 164 -7 q 166 26 167 57 q 168 88 169 115 q 170 141 170 160 q 171 180 171 189 q 171 204 168 221 q 166 238 161 256 q 155 276 147 299 q 139 322 130 345 q 121 368 111 390 q 102 413 93 432 q 84 452 77 468 q 69 484 64 494 q 60 503 55 509 q 50 515 44 519 q 38 522 30 524 q 23 526 13 526 q 4 526 -5 525 q -15 523 -26 522 l -29 544 q 8 553 33 558 q 57 563 72 563 q 88 563 97 557 q 106 551 113 538 z"},"c":{"x_min":0,"x_max":306,"ha":306,"o":"m 233 251 q 240 264 240 278 q 240 288 236 296 q 233 304 227 311 q 220 317 210 321 q 200 325 187 325 q 168 325 153 318 q 138 312 126 300 q 115 288 106 273 q 98 257 93 240 q 88 222 85 204 q 83 185 83 168 q 83 136 91 110 q 99 85 113 67 q 127 48 146 38 q 164 28 185 28 q 207 28 230 40 q 253 52 274 77 q 276 77 278 75 q 281 74 282 72 q 284 71 286 69 q 287 67 287 66 q 287 65 287 64 l 287 63 q 263 25 230 6 q 197 -13 157 -13 q 135 -13 117 -7 q 99 -1 85 10 q 70 20 59 35 q 48 49 40 66 q 33 83 29 102 q 25 121 25 140 q 25 165 31 191 q 37 217 47 241 q 58 264 74 285 q 89 306 109 321 q 129 336 152 345 q 176 354 203 354 q 223 354 240 349 q 258 344 270 335 q 283 326 290 313 q 297 301 297 285 q 297 275 294 268 q 291 260 286 255 q 280 249 273 246 q 265 243 256 243 q 251 243 245 245 q 240 246 234 248 z"},"!":{"x_min":0,"x_max":229,"ha":229,"o":"m 109 145 l 104 146 q 102 185 101 225 q 100 266 99 306 q 98 346 97 384 q 97 423 97 458 q 97 484 97 507 q 97 530 98 550 q 98 555 102 559 q 105 563 111 566 q 117 568 124 569 q 131 571 138 571 q 146 571 156 569 q 166 567 175 563 q 168 512 161 461 q 155 411 149 359 q 143 308 138 255 q 133 202 129 147 z m 112 -10 q 104 -10 97 -6 q 90 -3 85 3 q 80 8 77 16 q 74 23 74 31 q 74 42 78 50 q 82 58 88 64 q 93 70 100 73 q 108 75 115 75 q 123 75 130 72 q 137 69 142 64 q 147 59 150 52 q 153 45 153 37 q 153 29 150 20 q 147 12 142 5 q 137 -2 129 -6 q 122 -10 112 -10 z"},"/":{"x_min":0,"x_max":274,"ha":274,"o":"m 24 -86 q 42 -15 58 52 q 75 119 90 180 q 105 240 118 293 q 131 346 142 389 q 153 433 162 466 q 171 499 177 520 q 182 538 187 551 q 193 564 200 572 q 206 580 214 584 q 223 588 233 588 q 244 588 261 583 l 262 581 q 235 521 209 449 q 184 376 159 292 q 133 207 107 111 q 81 15 52 -91 z"},"[":{"x_min":0,"x_max":264,"ha":264,"o":"m 240 627 l 188 626 q 174 625 166 624 q 157 623 153 620 q 148 617 146 612 q 144 606 143 597 q 142 591 141 575 q 140 559 139 535 q 137 511 136 479 q 134 448 133 410 q 132 373 130 332 q 129 290 128 245 q 128 207 127 172 q 127 137 127 104 q 127 62 128 26 q 128 -9 129 -37 q 129 -64 130 -82 q 130 -100 131 -106 q 132 -115 133 -121 q 135 -126 140 -130 q 144 -133 153 -134 q 161 -135 175 -135 l 226 -136 l 227 -163 l 97 -163 q 88 -163 83 -158 q 78 -153 78 -144 q 78 -137 79 -120 q 79 -103 80 -76 q 81 -50 82 -15 q 83 20 84 61 q 86 102 87 148 q 88 195 89 245 q 90 321 91 387 q 92 454 92 506 l 92 611 q 92 619 92 625 q 92 631 92 634 q 92 643 97 649 q 102 654 112 654 l 241 654 z"},"6":{"x_min":0,"x_max":401,"ha":401,"o":"m 134 255 q 132 259 131 262 q 129 265 129 267 q 129 276 141 281 q 164 293 187 299 q 210 304 232 304 q 260 304 285 296 q 310 287 328 270 q 347 252 358 226 q 369 200 369 166 q 369 138 363 113 q 356 89 344 69 q 333 49 317 34 q 301 19 282 8 q 263 -2 243 -8 q 223 -13 202 -13 q 181 -13 161 -8 q 141 -2 123 9 q 105 20 89 38 q 73 55 62 79 q 51 103 44 134 q 38 165 38 203 q 38 243 46 283 q 54 322 70 358 q 85 394 107 425 q 129 456 156 478 q 184 501 215 514 q 247 527 282 527 q 303 527 319 523 q 334 520 345 514 q 355 509 360 501 q 365 494 365 486 q 365 482 364 477 q 363 472 359 467 q 355 462 349 458 q 344 454 335 451 q 324 463 314 470 q 304 477 293 481 q 283 484 272 486 q 262 487 251 487 q 219 487 191 470 q 164 452 144 419 q 124 386 113 338 q 102 290 102 229 q 102 172 112 132 q 121 92 137 67 q 152 42 172 30 q 192 19 213 19 q 235 19 252 27 q 270 36 282 52 q 294 68 301 91 q 307 114 307 142 q 307 157 305 173 q 302 188 296 203 q 290 218 282 230 q 273 243 261 252 q 250 262 235 267 q 220 273 202 273 q 185 273 168 269 q 152 265 134 255 z"},"r":{"x_min":0,"x_max":295,"ha":295,"o":"m 67 -6 l 63 -6 q 65 17 67 44 q 68 72 70 100 q 71 128 72 156 q 73 184 74 208 q 75 232 76 251 q 76 270 76 281 q 76 290 75 296 q 74 303 72 307 q 69 312 64 314 q 60 316 51 316 q 47 316 43 315 q 38 315 33 314 q 28 313 21 311 q 14 310 5 308 l 2 325 q 42 340 67 346 q 93 352 101 352 q 117 352 124 342 q 131 333 131 314 q 131 313 131 304 q 130 296 130 283 q 129 270 127 252 q 126 234 125 214 q 123 194 121 172 q 119 150 117 129 l 119 128 q 131 176 146 218 q 161 259 179 290 q 198 320 220 338 q 242 355 268 355 q 277 355 285 352 q 293 349 299 344 q 305 339 309 331 q 312 324 312 316 q 312 305 307 295 q 302 284 292 277 l 290 277 q 280 285 271 289 q 262 293 251 293 q 240 293 230 289 q 220 284 211 277 q 198 264 186 243 q 174 222 164 197 q 154 171 146 143 q 138 115 132 89 q 126 62 123 39 q 119 16 118 0 z"},"2":{"x_min":0,"x_max":328,"ha":328,"o":"m 21 19 q 62 49 93 74 q 124 100 147 122 q 170 144 186 162 q 201 181 211 197 q 220 214 224 228 q 229 242 229 254 q 229 276 221 290 q 213 305 201 314 q 189 323 175 327 q 160 332 147 332 q 129 332 117 328 q 104 323 97 317 q 89 310 86 301 q 82 292 82 282 q 82 268 88 254 q 94 240 105 231 l 104 228 q 91 220 76 220 q 67 220 59 223 q 51 226 44 232 q 38 237 34 245 q 30 253 30 263 q 30 278 37 291 q 44 304 56 315 q 68 326 84 334 q 99 343 116 349 q 133 355 151 358 q 168 361 183 361 q 206 361 225 355 q 244 349 259 338 q 273 327 281 311 q 289 295 289 274 q 289 260 285 244 q 281 228 272 211 q 263 194 247 175 q 231 155 207 133 q 183 112 151 87 q 118 62 74 33 l 75 32 q 98 38 122 43 q 146 48 168 51 q 191 55 211 57 q 231 58 247 58 q 261 58 271 57 q 282 55 290 51 q 297 47 301 41 q 305 34 305 26 q 305 15 298 -1 q 263 2 230 3 q 197 5 162 5 q 130 5 96 3 q 62 1 23 -2 z"},"{":{"x_min":0,"x_max":271,"ha":271,"o":"m 35 263 q 56 266 71 271 q 86 276 96 284 q 105 293 110 307 q 115 320 115 339 q 115 354 113 373 q 112 392 109 412 q 107 433 106 455 q 104 476 104 496 q 104 527 111 555 q 119 584 134 606 q 150 628 175 641 q 200 654 235 654 l 242 654 q 244 654 246 654 q 247 654 249 654 l 247 628 q 246 628 245 628 q 243 628 242 628 l 237 628 q 216 628 201 622 q 187 617 177 604 q 167 592 162 573 q 157 554 157 528 q 157 512 159 496 q 160 479 161 463 q 163 446 164 429 q 166 412 166 395 q 166 371 162 349 q 159 326 150 308 q 141 289 126 275 q 110 260 85 253 l 85 251 q 108 243 123 230 q 138 218 146 200 q 155 183 158 163 q 161 142 161 119 q 161 98 159 77 q 157 55 154 35 q 152 14 149 -6 q 147 -26 147 -45 q 147 -69 152 -87 q 157 -104 167 -116 q 176 -127 190 -132 q 205 -137 224 -137 l 229 -137 q 230 -137 231 -137 q 233 -137 234 -137 l 235 -163 q 233 -163 231 -163 q 230 -163 228 -163 l 221 -163 q 188 -163 164 -151 q 140 -138 125 -117 q 110 -96 103 -69 q 95 -41 95 -11 q 95 4 97 19 q 98 35 100 51 q 102 68 104 84 q 106 100 108 115 q 109 130 111 143 q 112 157 112 168 q 112 187 107 199 q 102 212 93 220 q 83 228 68 233 q 54 238 34 240 z"},"9":{"x_min":0,"x_max":398,"ha":398,"o":"m 270 92 q 272 89 273 86 q 274 83 274 80 q 274 73 263 66 q 241 53 217 48 q 194 43 171 43 q 144 43 119 53 q 94 63 74 81 q 55 100 44 127 q 32 154 32 188 q 32 217 39 241 q 46 264 58 284 q 69 303 85 317 q 102 332 120 341 q 139 351 159 356 q 180 361 200 361 q 221 361 240 355 q 260 350 278 339 q 296 327 311 310 q 326 292 337 268 q 348 244 355 214 q 361 183 361 145 q 361 118 358 90 q 354 62 348 35 q 341 7 330 -20 q 320 -46 305 -70 q 291 -94 273 -114 q 254 -134 232 -148 q 210 -163 183 -171 q 157 -179 126 -179 q 101 -179 82 -174 q 63 -169 50 -161 q 36 -153 29 -143 q 22 -133 22 -124 q 22 -119 24 -113 q 26 -108 30 -104 q 33 -99 40 -95 q 46 -92 55 -90 q 66 -105 78 -115 q 90 -124 103 -130 q 115 -135 128 -137 q 141 -139 154 -139 q 190 -139 218 -121 q 245 -103 262 -69 q 280 -35 289 12 q 297 59 297 118 q 297 175 288 215 q 279 256 264 281 q 249 306 229 317 q 210 329 189 329 q 167 329 150 321 q 132 313 120 299 q 108 284 101 262 q 95 241 95 213 q 95 198 98 181 q 101 165 106 150 q 112 135 121 121 q 130 107 142 97 q 154 87 169 81 q 184 75 202 75 q 219 75 236 79 q 252 83 270 92 z"}," ":{"x_min":0,"x_max":175,"ha":175,"o":""},"I":{"x_min":0,"x_max":219,"ha":219,"o":"m 91 484 q 91 495 90 504 q 89 512 85 517 q 81 522 74 524 q 67 527 55 527 q 47 527 35 526 q 23 525 10 523 l 8 543 q 44 552 70 557 q 95 561 112 561 q 128 561 137 557 q 146 553 150 544 q 154 536 155 524 q 155 511 155 496 q 155 490 155 467 q 154 444 153 407 q 152 371 150 323 q 149 276 147 223 q 146 169 144 113 q 142 56 141 0 l 83 -7 l 78 -7 q 81 63 84 126 q 86 188 88 248 q 89 307 90 365 q 91 423 91 484 z"},"H":{"x_min":0,"x_max":553,"ha":553,"o":"m 155 496 q 155 486 155 470 q 154 454 154 430 q 153 407 152 376 q 151 345 150 306 q 185 307 218 308 q 250 309 282 309 q 313 310 345 310 q 377 311 410 311 q 411 336 412 361 q 413 385 414 413 q 415 441 417 472 q 419 504 422 543 q 422 548 425 552 q 428 556 433 558 q 438 561 443 562 q 449 563 455 563 q 462 563 470 561 q 479 560 486 556 q 483 516 480 479 q 477 443 475 408 q 473 374 472 340 q 470 306 469 271 q 469 237 468 201 q 468 165 468 126 q 468 100 470 82 q 472 64 478 52 q 483 41 493 35 q 502 30 516 30 q 526 30 537 31 q 547 33 563 39 l 570 19 q 552 11 537 6 q 522 0 509 -4 q 496 -7 485 -9 q 474 -11 463 -11 q 449 -11 439 -6 q 428 0 422 11 q 415 23 411 43 q 408 62 408 91 l 408 147 q 408 166 408 183 q 408 201 408 217 q 408 234 409 249 q 409 264 409 280 q 376 280 344 279 q 312 279 281 278 q 249 278 217 276 q 184 275 149 273 l 141 0 l 83 -7 l 78 -7 q 81 63 84 126 q 86 189 88 249 q 89 309 90 366 q 91 424 91 484 q 91 495 89 504 q 88 512 83 517 q 79 522 71 524 q 64 527 52 527 q 36 527 10 523 l 8 543 q 43 552 68 557 q 93 561 109 561 q 126 561 135 557 q 144 553 149 544 q 153 536 154 524 q 155 511 155 496 z"},"4":{"x_min":0,"x_max":396,"ha":396,"o":"m 6 9 q 50 71 81 119 q 112 167 133 205 q 155 243 168 272 q 181 301 189 324 q 197 347 201 366 q 205 385 209 402 q 222 402 231 400 q 240 397 245 393 q 251 388 253 381 q 256 375 256 366 q 256 352 247 331 q 239 310 225 284 q 211 258 192 228 q 172 198 150 166 q 128 134 104 100 q 80 67 56 33 l 57 32 q 104 39 147 44 q 191 48 233 51 q 234 65 235 79 q 236 94 236 111 q 237 128 238 151 q 239 173 240 202 q 240 210 243 217 q 246 223 251 227 q 256 231 262 233 q 268 235 274 235 q 280 235 286 233 q 292 232 298 228 q 296 204 294 185 q 293 165 292 145 q 290 125 289 103 q 288 81 286 53 q 308 54 326 54 q 339 54 350 53 q 360 52 367 49 q 375 46 379 40 q 383 35 383 26 q 383 15 375 -1 q 352 0 330 2 q 307 3 284 3 q 283 -18 283 -37 q 282 -56 281 -76 q 281 -95 280 -118 q 279 -141 278 -169 l 226 -176 l 222 -176 q 224 -141 226 -116 q 227 -90 228 -70 q 229 -49 230 -32 q 230 -14 231 5 q 227 5 223 5 q 219 5 215 5 l 199 5 q 158 5 109 3 q 61 2 9 -3 z"},"~":{"x_min":0,"x_max":367,"ha":367,"o":"m 22 149 q 22 150 22 153 l 22 156 q 22 175 29 188 q 35 200 46 208 q 57 217 71 220 q 84 224 98 224 q 113 224 129 221 q 145 217 160 212 q 176 207 191 201 q 207 196 221 190 q 235 185 248 182 q 261 179 273 179 q 296 179 312 188 q 328 197 338 218 l 345 216 q 345 215 345 214 q 345 213 345 212 l 345 209 q 345 190 339 178 q 332 165 321 157 q 311 149 297 146 q 283 142 269 142 q 254 142 239 146 q 223 149 208 154 q 192 159 177 165 q 161 171 147 176 q 133 181 119 184 q 106 188 95 188 q 71 188 54 178 q 38 168 29 148 z"},"D":{"x_min":0,"x_max":543,"ha":543,"o":"m 155 534 q 155 521 154 497 q 154 473 153 441 q 152 409 151 371 q 150 333 149 293 q 147 254 146 214 q 145 175 143 140 q 142 105 140 77 q 138 48 137 31 q 161 24 182 22 q 202 20 222 20 q 263 20 295 30 q 327 41 352 59 q 376 77 394 103 q 411 128 422 158 q 433 189 438 223 q 443 257 443 293 q 443 347 431 391 q 419 436 392 468 q 365 500 323 518 q 280 536 218 536 q 202 536 187 536 q 171 535 155 534 z m 8 542 q 33 547 61 551 q 88 556 116 559 q 144 562 172 565 q 200 567 227 567 q 265 567 301 562 q 337 557 368 546 q 400 534 426 516 q 453 497 472 468 q 490 440 501 402 q 511 363 511 312 q 511 267 502 225 q 493 184 476 148 q 459 112 434 83 q 409 53 377 33 q 344 12 306 0 q 267 -11 223 -11 q 200 -11 176 -8 q 152 -5 127 2 l 78 -4 l 74 -3 q 76 12 78 38 q 80 64 81 98 q 83 132 85 174 q 87 216 88 264 q 89 312 90 366 q 91 419 91 477 q 91 489 90 497 q 89 506 85 512 q 81 518 73 521 q 65 524 51 524 q 35 524 10 520 z"},"^":{"x_min":0,"x_max":363,"ha":363,"o":"m 184 516 q 165 467 149 428 q 133 390 121 361 q 108 332 99 312 q 89 291 81 277 q 74 263 68 255 q 62 247 57 243 q 53 238 49 237 q 44 236 40 236 q 38 236 34 237 q 31 238 27 240 q 23 241 20 245 q 17 248 15 252 q 26 270 39 292 q 52 314 65 339 q 78 364 92 391 q 105 418 118 446 q 131 473 143 501 q 155 529 166 555 q 168 560 174 562 q 180 564 187 564 q 199 564 206 561 q 216 534 227 506 q 238 478 250 450 q 261 421 273 394 q 285 366 297 341 q 309 315 321 293 q 333 270 344 252 q 341 248 338 245 q 335 241 331 240 q 327 238 324 237 q 321 236 318 236 q 312 236 307 238 q 301 241 294 250 q 287 259 278 277 q 269 295 256 326 q 243 357 225 404 q 208 450 184 516 z"},"0":{"x_min":0,"x_max":398,"ha":398,"o":"m 209 360 q 243 360 272 349 q 301 338 322 316 q 343 294 355 262 q 367 229 367 188 q 367 157 360 130 q 354 104 343 81 q 331 59 315 42 q 299 24 279 12 q 260 0 237 -7 q 215 -13 190 -13 q 157 -13 128 -2 q 99 9 78 31 q 56 53 44 85 q 32 118 32 160 q 32 190 38 217 q 44 243 56 265 q 68 288 84 305 q 100 323 120 335 q 140 347 162 354 q 185 360 209 360 z m 207 19 q 231 19 249 30 q 268 40 280 59 q 293 78 300 104 q 307 131 307 162 q 307 184 303 205 q 299 226 292 245 q 285 263 275 278 q 265 293 252 304 q 239 315 223 321 q 208 327 190 327 q 169 327 151 318 q 133 308 120 290 q 106 271 99 245 q 91 218 91 185 q 91 152 99 122 q 107 92 123 69 q 138 46 159 33 q 180 19 207 19 z"},"F":{"x_min":0,"x_max":390,"ha":390,"o":"m 91 485 q 91 495 89 503 q 88 510 83 514 q 79 519 72 521 q 64 523 52 523 q 44 523 34 522 q 25 521 12 520 l 10 543 q 34 546 54 549 q 75 552 93 554 q 111 556 126 557 q 142 558 156 558 q 196 558 231 559 q 266 559 293 560 q 320 561 338 561 q 355 562 359 562 q 370 562 376 557 q 382 551 382 540 q 382 536 381 523 q 381 510 379 494 q 378 478 376 459 q 375 441 373 425 l 349 426 q 350 435 350 443 q 350 451 350 458 q 350 479 348 492 q 345 504 339 512 q 332 519 321 522 q 310 524 292 525 q 280 525 269 525 q 258 525 248 525 l 198 525 q 193 525 189 525 q 184 525 179 525 q 175 525 169 525 q 163 525 156 524 q 155 483 153 425 q 152 367 150 295 q 182 293 207 293 q 232 292 252 292 q 278 292 297 294 q 317 295 335 299 q 339 288 339 280 q 339 272 334 268 q 330 263 322 260 q 313 257 302 255 q 290 254 276 254 q 250 254 218 257 q 186 260 149 264 q 148 234 147 201 q 146 169 145 135 q 144 102 143 68 q 142 34 141 0 l 83 -7 l 78 -7 q 81 63 84 126 q 86 189 88 248 q 89 307 90 366 q 91 424 91 485 z"},"`":{"x_min":0,"x_max":195,"ha":195,"o":""},"k":{"x_min":0,"x_max":388,"ha":388,"o":"m 166 157 q 196 167 220 179 q 244 192 261 206 q 279 220 288 236 q 298 251 298 268 q 298 275 295 280 q 293 286 288 290 q 284 294 278 296 q 273 299 266 299 q 251 299 234 289 q 218 280 202 261 q 185 243 170 217 q 155 191 141 158 q 128 125 118 85 q 107 45 101 0 l 52 -6 l 48 -6 q 49 23 51 57 q 53 92 55 131 q 57 170 59 213 q 62 255 64 299 q 66 343 69 388 q 71 432 73 476 q 76 520 78 561 q 80 603 82 641 q 82 647 85 651 q 89 656 94 658 q 99 661 105 662 q 111 663 118 663 q 133 663 149 655 q 143 605 139 563 q 135 522 131 486 q 127 450 125 419 q 122 388 119 359 q 117 331 115 304 q 113 277 111 249 q 109 220 107 190 q 105 160 102 126 l 104 126 q 113 155 125 183 q 136 211 151 237 q 165 262 182 284 q 198 306 217 321 q 235 337 254 346 q 273 355 293 355 q 305 355 316 351 q 326 347 334 339 q 342 332 346 321 q 350 311 350 298 q 350 278 342 259 q 333 240 317 222 q 301 204 278 189 q 255 173 228 159 q 244 129 257 108 q 270 87 281 72 q 292 58 300 49 q 309 41 316 36 q 323 32 329 30 q 336 29 342 29 q 355 29 368 33 q 382 37 396 43 l 401 31 q 392 23 378 16 q 365 9 350 3 q 335 -3 320 -7 q 305 -11 294 -11 q 281 -11 268 -1 q 255 8 240 29 q 225 49 207 80 q 189 111 165 154 z"},"u":{"x_min":0,"x_max":416,"ha":416,"o":"m 131 306 q 131 289 130 270 q 128 251 127 232 q 125 212 123 193 q 122 173 120 156 q 118 139 117 124 q 116 110 116 100 q 116 71 127 57 q 138 44 156 44 q 177 44 199 66 q 221 89 240 132 q 260 175 274 228 q 288 282 292 344 l 344 350 l 348 350 q 345 327 344 301 q 342 275 340 249 q 339 223 338 198 q 337 173 337 152 q 337 112 342 87 q 347 62 354 47 q 361 32 371 27 q 380 21 390 21 q 395 21 401 23 q 406 24 411 26 q 416 29 420 31 q 424 33 427 35 l 435 24 q 428 17 419 10 q 410 4 400 -1 q 390 -6 379 -8 q 368 -11 357 -11 q 343 -11 329 -5 q 316 0 306 13 q 295 27 289 49 q 283 71 283 103 q 283 114 283 125 q 284 135 285 147 q 286 159 287 173 q 289 187 291 203 l 289 204 q 272 143 253 101 q 233 60 213 34 q 192 9 172 -2 q 151 -13 133 -13 q 119 -13 106 -8 q 93 -3 83 7 q 73 18 67 36 q 61 54 61 80 q 61 97 63 120 q 65 142 68 168 q 70 193 72 221 q 74 248 74 274 q 74 285 73 293 q 72 301 70 306 q 67 311 63 313 q 58 316 50 316 q 41 316 28 313 q 15 311 0 307 l -4 324 q 16 332 34 337 q 51 342 64 345 q 78 349 87 351 q 97 352 101 352 q 110 352 115 349 q 121 346 125 340 q 128 334 129 325 q 131 317 131 306 z"},"]":{"x_min":0,"x_max":264,"ha":264,"o":"m 27 -136 l 79 -135 q 92 -135 101 -134 q 109 -133 114 -130 q 118 -126 120 -121 q 122 -115 123 -106 q 124 -101 125 -85 q 126 -69 128 -44 q 129 -20 131 12 q 132 43 133 80 q 135 117 136 159 q 137 201 138 245 q 139 284 139 321 q 139 357 139 391 q 139 432 139 467 q 138 502 138 529 q 137 556 137 573 q 136 591 135 597 q 135 606 133 612 q 131 617 127 620 q 122 623 114 624 q 105 625 92 626 l 40 627 l 39 654 l 169 654 q 179 654 183 649 q 188 643 188 634 q 188 628 188 611 q 187 593 186 567 q 185 540 184 506 q 183 471 181 430 q 180 389 179 342 q 178 296 177 245 q 176 169 175 103 q 175 37 175 -15 l 175 -76 q 175 -103 175 -120 q 175 -137 175 -144 q 174 -153 169 -158 q 165 -163 155 -163 l 25 -163 z"},"U":{"x_min":0,"x_max":561,"ha":561,"o":"m 494 556 q 489 502 485 453 q 482 404 479 357 q 477 310 476 264 q 475 219 475 171 q 475 135 476 108 q 477 81 481 63 q 486 46 495 37 q 504 29 521 29 q 530 29 542 31 q 555 33 572 39 l 578 20 q 565 13 551 8 q 537 2 524 -2 q 510 -6 498 -9 q 486 -11 476 -11 q 458 -11 446 -4 q 435 4 428 17 q 422 30 420 48 q 417 67 417 89 q 417 113 418 140 q 420 167 422 195 l 419 196 q 411 172 400 147 q 389 123 375 99 q 361 76 344 56 q 327 35 306 20 q 286 5 262 -4 q 239 -13 212 -13 q 184 -13 163 -5 q 142 3 126 16 q 111 30 102 49 q 92 68 86 91 q 81 114 78 139 q 76 164 76 190 q 76 218 78 249 q 80 280 83 312 q 86 343 89 372 q 93 401 95 426 q 98 450 100 468 q 102 485 102 493 q 102 501 101 508 q 99 514 95 518 q 91 522 83 525 q 76 527 64 527 q 56 527 45 526 q 35 525 21 523 l 19 543 q 56 552 81 557 q 107 562 124 562 q 136 562 144 559 q 152 556 157 551 q 162 546 164 537 q 166 529 166 518 q 166 511 164 494 q 162 476 159 451 q 156 427 152 396 q 149 365 146 332 q 143 299 141 265 q 139 232 139 201 q 139 181 140 162 q 141 142 145 124 q 148 106 154 90 q 161 74 171 62 q 181 51 196 44 q 211 37 232 37 q 257 37 280 48 q 302 59 323 79 q 343 99 360 127 q 377 154 389 187 q 402 220 409 257 q 417 295 419 334 q 419 349 420 363 q 421 377 421 392 q 422 406 423 422 q 423 438 424 456 q 425 475 427 496 q 428 517 430 542 q 430 547 433 551 q 436 555 440 558 q 445 561 450 562 q 456 563 462 563 q 469 563 478 561 q 486 560 494 556 z"},"o":{"x_min":0,"x_max":355,"ha":355,"o":"m 28 140 q 28 165 33 190 q 38 216 48 240 q 58 263 73 284 q 88 305 107 321 q 126 336 150 345 q 174 354 201 354 q 233 354 257 341 q 281 328 297 307 q 313 285 322 257 q 330 230 330 201 q 330 176 325 151 q 320 125 310 102 q 300 78 285 57 q 270 36 251 21 q 232 5 208 -4 q 184 -13 156 -13 q 125 -13 101 0 q 77 13 61 35 q 45 56 36 84 q 28 112 28 140 z m 86 164 q 86 147 89 130 q 91 113 97 97 q 102 81 110 67 q 118 53 129 43 q 140 33 153 27 q 167 21 183 21 q 201 21 214 29 q 228 37 238 49 q 248 62 254 78 q 261 95 265 112 q 269 130 270 147 q 272 164 272 178 q 272 195 269 212 q 267 229 261 245 q 256 260 248 274 q 240 288 229 298 q 218 308 205 314 q 191 320 175 320 q 157 320 143 312 q 130 305 120 292 q 110 280 104 263 q 97 247 93 229 q 89 212 88 195 q 86 178 86 164 z"},"N":{"x_min":0,"x_max":528,"ha":528,"o":"m 170 520 q 181 500 195 475 q 209 450 226 423 q 242 396 259 367 q 277 338 295 309 q 312 279 330 251 q 348 222 364 196 q 381 170 395 147 q 410 124 422 106 q 422 171 422 225 q 423 279 423 322 q 424 365 425 399 q 426 432 428 457 q 429 483 431 500 q 433 518 436 530 q 438 539 442 546 q 446 552 452 556 q 457 560 463 562 q 469 563 476 563 q 492 563 510 556 l 510 554 q 498 537 489 510 q 481 483 475 450 q 469 417 465 380 q 461 343 459 307 q 457 271 455 238 q 454 205 454 179 q 453 156 453 134 q 452 112 452 90 q 451 68 451 46 q 451 24 451 0 l 421 -4 l 417 -3 q 409 7 398 24 q 387 41 373 63 q 358 86 342 112 q 325 138 308 167 q 290 196 272 225 q 253 255 235 284 q 218 314 201 342 q 184 369 169 394 q 154 418 142 439 q 129 459 121 473 q 120 419 119 368 q 118 317 116 270 q 115 223 113 180 q 111 138 108 102 q 106 76 105 58 q 103 40 100 28 q 98 16 94 9 q 90 1 84 -2 q 79 -6 71 -7 q 63 -8 52 -8 l 46 -8 q 44 -8 41 -7 q 38 -7 33 -7 l 30 -5 q 41 19 49 48 q 57 78 63 110 q 69 143 74 178 q 78 213 81 249 q 84 284 86 318 q 88 352 89 383 q 90 413 90 440 q 90 466 90 486 q 90 496 89 504 q 87 511 83 516 q 78 521 71 523 q 64 525 52 525 q 44 525 33 524 q 23 523 10 521 l 7 542 q 28 547 44 551 q 61 554 74 557 q 88 559 99 561 q 109 562 118 562 q 127 562 134 560 q 141 558 146 553 q 152 548 158 540 q 163 531 170 520 z"},"+":{"x_min":0,"x_max":385,"ha":385,"o":"m 173 10 q 173 33 172 56 q 172 79 172 102 l 172 129 q 172 136 172 143 q 172 150 172 157 q 152 157 132 158 q 112 158 92 158 q 76 158 61 157 q 45 155 29 151 q 29 166 35 174 q 40 183 49 188 q 59 192 72 194 q 86 195 103 195 q 134 195 173 195 q 174 228 175 259 q 176 290 178 320 q 178 325 181 329 q 183 332 187 334 q 190 336 195 337 q 199 338 204 338 q 210 338 216 337 q 222 336 227 333 q 225 323 224 307 q 222 292 220 274 q 219 256 218 236 q 216 215 215 194 q 236 194 257 193 q 278 193 300 193 q 314 193 327 194 q 341 195 352 197 q 354 191 355 186 q 355 180 355 176 q 355 169 353 165 q 350 161 344 158 q 339 156 329 155 q 320 155 307 155 q 261 155 213 156 q 212 134 211 114 q 211 93 210 74 q 209 55 209 40 q 209 24 209 13 l 177 9 z"},"G":{"x_min":0,"x_max":501,"ha":501,"o":"m 318 574 q 351 574 379 569 q 406 563 426 555 q 446 546 458 537 q 469 527 469 519 q 469 502 467 475 q 466 448 464 410 l 443 411 q 443 414 443 417 q 443 421 443 424 q 443 441 440 456 q 436 472 427 485 q 417 499 403 510 q 389 520 373 527 q 356 535 337 538 q 319 542 299 542 q 265 542 237 531 q 209 521 187 503 q 165 484 149 459 q 133 434 122 405 q 112 375 106 343 q 101 310 101 277 q 101 232 109 195 q 116 158 130 129 q 144 100 163 79 q 182 58 204 45 q 227 31 253 25 q 279 18 307 18 q 329 18 344 21 q 359 24 369 30 q 378 35 383 42 q 388 49 389 57 q 391 72 391 90 q 392 107 392 125 l 392 146 q 392 165 389 175 q 387 185 380 190 q 373 195 361 196 q 349 197 331 197 l 319 197 q 315 197 311 197 q 307 197 301 197 l 299 221 q 303 220 306 220 q 310 220 312 220 l 323 220 q 339 220 357 221 q 375 221 391 221 q 406 222 418 222 q 429 222 432 222 q 445 222 451 216 q 457 209 457 193 q 457 183 456 168 q 456 153 455 134 q 454 115 453 94 q 452 72 451 50 q 451 41 450 35 q 449 29 447 25 q 445 21 441 18 q 437 15 431 12 q 424 8 411 4 q 398 0 380 -4 q 363 -8 343 -10 q 322 -13 300 -13 q 270 -13 238 -8 q 207 -3 177 10 q 147 22 120 42 q 94 62 74 92 q 55 122 43 163 q 32 204 32 258 q 32 296 40 334 q 48 373 63 408 q 79 443 103 473 q 127 504 159 526 q 190 549 230 561 q 270 574 318 574 z"},"q":{"x_min":0,"x_max":390,"ha":390,"o":"m 318 -111 q 318 -143 319 -161 q 321 -180 324 -190 q 328 -200 334 -203 q 340 -206 350 -206 q 361 -206 380 -201 q 399 -197 422 -186 l 428 -200 q 420 -205 409 -210 q 399 -216 387 -221 q 375 -226 363 -231 q 351 -236 340 -239 q 329 -243 320 -245 q 311 -247 305 -247 q 292 -247 284 -242 q 277 -236 273 -223 q 269 -209 268 -187 q 267 -164 267 -131 q 267 -106 267 -79 q 268 -51 269 -22 q 271 7 273 36 q 274 65 276 92 q 278 119 280 143 q 282 167 284 186 l 282 186 q 266 138 245 101 q 224 63 202 38 q 180 13 158 0 q 135 -13 116 -13 q 94 -13 77 -2 q 61 8 50 26 q 39 44 34 67 q 29 90 29 115 q 29 148 36 178 q 44 209 57 235 q 70 261 87 282 q 104 303 125 318 q 145 333 167 341 q 189 350 212 350 q 233 350 251 342 q 269 335 286 320 l 287 335 q 288 347 296 353 q 303 359 317 359 q 325 359 332 357 q 339 355 348 351 q 345 332 342 307 q 340 281 337 252 q 334 222 332 189 q 330 156 328 123 q 325 89 324 56 q 322 23 321 -8 q 319 -38 319 -65 q 318 -91 318 -111 z m 286 294 q 276 302 268 307 q 259 312 251 315 q 243 318 236 319 q 228 321 220 321 q 201 321 183 314 q 166 307 151 295 q 136 283 125 266 q 113 249 105 229 q 97 209 92 186 q 88 163 88 139 q 88 131 89 121 q 90 111 92 101 q 94 90 97 80 q 101 70 106 62 q 112 54 119 49 q 127 44 137 44 q 155 44 172 56 q 189 68 205 88 q 221 108 235 134 q 250 160 260 188 q 271 216 277 243 q 284 271 286 294 z"},"d":{"x_min":0,"x_max":423,"ha":423,"o":"m 384 655 q 375 593 367 528 q 359 463 353 399 q 347 334 344 272 q 340 209 340 152 q 340 125 340 105 q 341 85 342 71 q 344 58 346 50 q 348 42 352 37 q 355 33 360 31 q 365 30 371 30 q 383 30 396 34 q 410 37 424 43 l 428 31 q 420 24 406 16 q 393 9 378 3 q 364 -3 350 -7 q 336 -11 325 -11 q 318 -11 312 -9 q 307 -7 303 -3 q 299 1 296 8 q 293 15 291 26 q 289 41 288 61 q 286 80 286 103 q 286 127 288 153 q 290 178 294 203 l 292 204 q 273 154 251 114 q 229 74 206 46 q 182 17 158 2 q 135 -13 113 -13 q 91 -13 75 -2 q 59 9 49 27 q 39 45 34 69 q 29 93 29 117 q 29 147 36 177 q 42 206 55 232 q 67 258 84 280 q 102 303 123 319 q 145 335 170 344 q 195 353 222 353 q 242 353 261 348 q 280 344 299 332 q 300 374 302 417 q 304 459 306 500 q 309 541 312 577 q 315 613 318 641 q 319 647 322 651 q 325 656 330 658 q 335 661 341 662 q 347 663 354 663 q 368 663 384 655 z m 297 311 q 264 327 231 327 q 208 327 188 319 q 168 312 152 298 q 136 285 124 267 q 112 249 104 229 q 96 208 92 186 q 88 164 88 142 q 88 134 89 124 q 90 114 92 103 q 94 92 97 81 q 101 71 106 63 q 111 54 118 49 q 125 44 135 44 q 153 44 171 58 q 189 71 207 93 q 224 114 240 142 q 255 170 267 200 q 280 230 287 259 q 295 288 297 311 z"},"1":{"x_min":0,"x_max":229,"ha":229,"o":"m -2 316 q 28 327 54 334 q 80 342 100 347 q 120 352 133 355 q 146 357 150 357 q 159 357 163 352 q 168 347 168 338 q 168 336 167 328 q 167 320 166 307 q 166 294 165 278 q 164 262 163 245 q 162 229 161 211 q 160 194 159 180 q 158 157 157 134 q 156 111 155 88 q 154 65 153 43 q 153 21 153 0 l 99 -6 l 95 -6 q 97 10 98 29 q 99 48 100 66 q 102 84 102 100 q 103 116 104 126 q 105 158 106 199 q 108 240 108 289 q 108 303 104 309 q 99 315 90 315 q 80 315 58 311 q 35 307 2 298 z"},"5":{"x_min":0,"x_max":341,"ha":341,"o":"m 294 354 q 302 340 302 328 q 302 309 281 298 q 259 288 221 288 q 194 288 160 293 q 126 297 84 305 q 83 288 81 268 q 79 248 77 227 q 74 207 72 188 q 69 168 65 153 l 66 152 q 93 165 118 171 q 143 177 167 177 q 198 177 225 167 q 251 156 270 138 q 289 119 300 93 q 311 66 311 34 q 311 9 305 -17 q 298 -42 286 -66 q 274 -89 257 -110 q 239 -131 216 -146 q 193 -161 165 -170 q 137 -179 104 -179 q 94 -179 82 -178 q 70 -176 58 -173 q 46 -170 34 -164 q 23 -159 14 -152 q 6 -144 0 -134 q -5 -124 -5 -111 q -5 -104 -2 -98 q 1 -91 6 -86 q 11 -80 18 -77 q 25 -74 34 -74 q 41 -92 52 -106 q 62 -119 75 -128 q 87 -136 101 -140 q 115 -145 129 -145 q 148 -145 164 -138 q 180 -132 193 -122 q 206 -111 216 -96 q 226 -82 233 -65 q 240 -48 244 -29 q 247 -10 247 9 q 247 37 239 62 q 230 86 215 104 q 200 122 178 132 q 156 143 130 143 q 111 143 90 137 q 69 132 46 120 l 34 136 q 43 184 49 238 q 54 292 57 349 q 71 349 83 348 q 95 347 107 347 q 118 347 130 346 q 141 346 154 346 q 188 346 222 348 q 257 349 294 354 z"}}}
